<?xml version="1.0" standalone="yes"?>
<!DOCTYPE svg PUBLIC "-//W3C//DTD SVG 1.1//EN"
 "http://www.w3.org/Graphics/SVG/1.1/DTD/svg11.dtd">
<svg xmlns="http://www.w3.org/2000/svg" version="1.1"
  width="100%" height="100%" viewBox="0 0 1024 768"
  style="fill: none; font-family: Helvetica;
 font: Helvetica;
">

<!-- Creator: NGspice -->

<rect x="0" y="0" width="1024" height="768" fill="black" stroke="none"/>
<text stroke="none" fill="white" font-size="16" x="358" y="752">
time
</text>
<text stroke="none" fill="white" font-size="16" x="10" y="16">
tran151: 
</text>
<path stroke="white" d="M60 720l0 -672"/>
<text stroke="none" fill="white" font-size="16" x="45" y="728">
0.0
</text>
<path stroke="white" stroke-dasharray="1,2" d="M173 720l0 -672"/>
<text stroke="none" fill="white" font-size="16" x="153" y="728">
10.0
</text>
<path stroke="white" stroke-dasharray="1,2" d="M286 720l0 -672"/>
<text stroke="none" fill="white" font-size="16" x="266" y="728">
20.0
</text>
<path stroke="white" stroke-dasharray="1,2" d="M399 720l0 -672"/>
<text stroke="none" fill="white" font-size="16" x="379" y="728">
30.0
</text>
<path stroke="white" stroke-dasharray="1,2" d="M512 720l0 -672"/>
<text stroke="none" fill="white" font-size="16" x="492" y="728">
40.0
</text>
<path stroke="white" stroke-dasharray="1,2" d="M625 720l0 -672"/>
<text stroke="none" fill="white" font-size="16" x="605" y="728">
50.0
</text>
<path stroke="white" stroke-dasharray="1,2" d="M738 720l0 -672"/>
<text stroke="none" fill="white" font-size="16" x="718" y="728">
60.0
</text>
<path stroke="white" stroke-dasharray="1,2" d="M851 720l0 -672"/>
<text stroke="none" fill="white" font-size="16" x="831" y="728">
70.0
</text>
<path stroke="white" stroke-dasharray="1,2" d="M964 720l0 -672"/>
<text stroke="none" fill="white" font-size="16" x="944" y="728">
80.0
</text>
<text stroke="none" fill="white" font-size="16" x="614" y="752">
ns
</text>
<path stroke="white" d="M60 720l904 0"/>
<text stroke="none" fill="white" font-size="16" x="18" y="728">
-0.0
</text>
<path stroke="white" stroke-dasharray="1,2" d="M60 624l904 0"/>
<text stroke="none" fill="white" font-size="16" x="28" y="632">
2.0
</text>
<path stroke="white" stroke-dasharray="1,2" d="M60 528l904 0"/>
<text stroke="none" fill="white" font-size="16" x="28" y="536">
4.0
</text>
<path stroke="white" stroke-dasharray="1,2" d="M60 432l904 0"/>
<text stroke="none" fill="white" font-size="16" x="28" y="440">
6.0
</text>
<path stroke="white" stroke-dasharray="1,2" d="M60 336l904 0"/>
<text stroke="none" fill="white" font-size="16" x="28" y="344">
8.0
</text>
<path stroke="white" stroke-dasharray="1,2" d="M60 240l904 0"/>
<text stroke="none" fill="white" font-size="16" x="18" y="248">
10.0
</text>
<path stroke="white" stroke-dasharray="1,2" d="M60 144l904 0"/>
<text stroke="none" fill="white" font-size="16" x="18" y="152">
12.0
</text>
<path stroke="white" stroke-dasharray="1,2" d="M60 48l904 0"/>
<text stroke="none" fill="white" font-size="16" x="18" y="56">
14.0
</text>
<text stroke="none" fill="white" font-size="16" x="10" y="32">
uA
</text>
<path stroke="red" d="M452 23l45 0"/>
<text stroke="none" fill="white" font-size="16" x="507" y="32">
i(vid1)
</text>
<path stroke="red" d="M60 720l1 0 0 -1 2 0 1 -1 2 0 1 -1 1 0 1 -1 1 0 2 -1 2 0 1 -1 1 0 1 -1 3 0 1 -1 1 0 1 -1 2 0 1 -1 3 0 1 -1 2 0 1 -1 2 0 1 -1 3 0 1 -1 2 0 1 -1 4 0 1 -1 2 0 1 -1 4 0 1 -1 3 0 1 -1 4 0 1 -1 3 0 1 -1 4 0 1 -1 4 0 1 -1 5 0 1 -1"/>
<path stroke="red" d="M145 696l3 0 2 -1 4 0 1 -1 6 0 1 -1 5 0 1 -1 5 0 1 -1 5 0 1 -1 6 0 1 -1 7 0 1 -1 5 0 2 -1 5 0 1 -1 7 0 1 -1 7 0 1 -1 7 0 1 -1 7 0 1 -1 7 0 1 -1 7 0 1 -1 7 0 1 -1 6 0 2 -1 6 0 2 -1 6 0 1 -1 8 0 1 -1 7 0 1 -1 7 0 1 -1 7 0"/>
<path stroke="red" d="M319 673l1 -1 7 0 1 -1 7 0 1 -1 7 0 1 -1 6 0 1 -1 7 0 1 -1 6 0 2 -1 6 0 1 -1 6 0 1 -1 7 0 1 -1 6 0 1 -1 7 0 1 -1 5 0 2 -1 5 0 1 -1 6 0 1 -1 7 0 1 -1 6 0 1 -1 6 0 1 -1 5 0 1 -1 6 0 1 -1 5 0 1 -1 6 0 1 -1 5 0 1 -1 6 0 1 -1"/>
<path stroke="red" d="M485 649l5 0 1 -1 5 0 2 -1 5 0 1 -1 5 0 1 -1 6 0 1 -1 4 0 1 -1 5 0 1 -1 6 0 1 -1 4 0 2 -1 4 0 1 -1 6 0 1 -1 5 0 1 -1 4 0 1 -1 5 0 1 -1 4 0 2 -1 4 0 1 -1 5 0 1 -1 4 0 2 -1 4 0 1 -1 5 0 1 -1 4 0 1 -1 5 0 1 -1 5 0 1 -1 3 0"/>
<path stroke="red" d="M624 626l1 -1 5 0 1 -1 4 0 2 -1 4 0 1 -1 4 0 1 -1 4 0 1 -1 5 0 1 -1 3 0 2 -1 4 0 1 -1 4 0 1 -1 4 0 1 -1 5 0 1 -1 3 0 2 -1 3 0 1 -1 5 0 1 -1 3 0 1 -1 5 0 1 -1 3 0 1 -1 5 0 1 -1 3 0 2 -1 3 0 1 -1 4 0 1 -1 4 0 1 -1 4 0 1 -1"/>
<path stroke="red" d="M743 602l3 0 1 -1 5 0 1 -1 3 0 2 -1 3 0 1 -1 3 0 2 -1 3 0 1 -1 3 0 2 -1 4 0 1 -1 4 0 1 -1 3 0 1 -1 4 0 1 -1 3 0 1 -1 4 0 1 -1 3 0 1 -1 4 0 1 -1 3 0 1 -1 4 0 1 -1 3 0 1 -1 4 0 1 -1 3 0 1 -1 4 0 1 -1 3 0 2 -1 3 0 1 -1 3 0"/>
<path stroke="red" d="M852 579l2 -1 2 0 1 -1 3 0 1 -1 4 0 1 -1 3 0 2 -1 3 0 1 -1 3 0 2 -1 3 0 1 -1 2 0 1 -1 4 0 1 -1 3 0 2 -1 3 0 1 -1 2 0 1 -1 4 0 1 -1 3 0 1 -1 4 0 1 -1 2 0 1 -1 4 0 1 -1 3 0 1 -1 3 0 1 -1 3 0 1 -1 4 0 1 -1 2 0 1 -1 4 0 1 -1"/>
<path stroke="red" d="M951 555l3 0 1 -1 3 0 1 -1 3 0 1 -1 1 0"/>
<path stroke="blue" d="M60 23l45 0"/>
<text stroke="none" fill="white" font-size="16" x="115" y="32">
i(vid2)
</text>
<path stroke="blue" d="M60 720l0 -1 1 -2 0 -3 2 -3 1 -4 1 -3 5 -10 2 -1 5 -5 1 0 2 -1 1 0 1 -1 1 0 1 -1 2 0 1 -1 4 0 1 -1 4 0 2 -1 4 0 1 -1 6 0 1 -1 7 0 1 -1 6 0 1 -1 7 0 1 -1 5 0 1 -1 6 0 1 -1 6 0 1 -1 6 0 1 -1 5 0 2 -1 5 0 1 -1 5 0 1 -1 6 0"/>
<path stroke="blue" d="M185 670l1 -1 4 0 1 -1 6 0 1 -1 5 0 1 -1 4 0 1 -1 5 0 1 -1 5 0 1 -1 4 0 1 -1 5 0 1 -1 5 0 1 -1 3 0 1 -1 5 0 1 -1 3 0 1 -1 5 0 1 -1 3 0 2 -1 3 0 1 -1 5 0 1 -1 3 0 1 -1 4 0 1 -1 3 0 1 -1 4 0 1 -1 3 0 1 -1 4 0 1 -1 3 0 1 -1"/>
<path stroke="blue" d="M304 646l4 0 1 -1 3 0 1 -1 3 0 1 -1 3 0 1 -1 4 0 1 -1 2 0 1 -1 4 0 1 -1 3 0 1 -1 3 0 1 -1 3 0 1 -1 2 0 2 -1 2 0 1 -1 3 0 2 -1 2 0 1 -1 2 0 1 -1 4 0 1 -1 2 0 1 -1 2 0 2 -1 2 0 1 -1 2 0 1 -1 3 0 1 -1 2 0 1 -1 2 0 2 -1 2 0"/>
<path stroke="blue" d="M395 623l1 -1 2 0 1 -1 3 0 1 -1 2 0 1 -1 2 0 1 -1 3 0 1 -1 2 0 1 -1 3 0 1 -1 1 0 1 -1 2 0 1 -1 3 0 1 -1 2 0 1 -1 1 0 1 -1 3 0 1 -1 2 0 1 -1 1 0 1 -1 3 0 1 -1 1 0 1 -1 2 0 1 -1 3 0 1 -1 1 0 1 -1 2 0 1 -1 2 0 1 -1 2 0 1 -1"/>
<path stroke="blue" d="M467 599l1 0 1 -1 2 0 1 -1 2 0 1 -1 1 0 1 -1 3 0 1 -1 1 0 1 -1 1 0 1 -1 2 0 2 -1 1 0 1 -1 1 0 1 -1 2 0 1 -1 2 0 1 -1 1 0 1 -1 1 0 1 -1 3 0 1 -1 1 0 1 -1 1 0 1 -1 1 0 1 -1 2 0 1 -1 1 0 1 -1 2 0 1 -1 1 0 2 -1 1 0 1 -1 1 0"/>
<path stroke="blue" d="M527 576l1 -1 1 0 1 -1 2 0 1 -1 1 0 1 -1 1 0 1 -1 1 0 1 -1 2 0 1 -1 1 0 1 -1 1 0 1 -1 1 0 1 -1 2 0 1 -1 1 0 1 -1 1 0 1 -1 1 0 2 -1 1 0 1 -1 1 0 1 -1 1 0 1 -1 1 0 2 -1 1 0 1 -1 1 0 2 -2 1 0 1 -1 2 0 1 -1 1 0 1 -1 1 0 1 -1"/>
<path stroke="blue" d="M581 551l1 0 2 -1 1 -1 1 0 1 -1 1 0 1 -1 1 0 1 -1 2 0 2 -2 1 0 1 -1 1 0 1 -1 1 0 2 -1 1 -1 1 0 1 -1 1 0 2 -2 1 0 2 -1 1 0 1 -1 1 0 2 -2 1 0 2 -1 1 0 2 -2 1 0 2 -2 1 0 2 -1 1 0 2 -2 1 0 1 -1 1 0 1 -1 2 -1 1 0 2 -2 1 0 2 -2"/>
<path stroke="blue" d="M643 518l2 0 1 -1 1 0 2 -2 1 0 2 -2 2 0 2 -2 1 0 2 -2 1 0 1 -1 2 -1 1 0 2 -2 1 0 2 -2 2 0 2 -2 1 0 3 -3 1 0 2 -1 1 -1 1 0 2 -2 1 0 2 -2 2 -1 1 0 2 -2 1 0 2 -2 2 -1 1 0 3 -3 1 0 2 -2 2 -1 1 0 3 -3 1 0 2 -2 2 -1 1 0 3 -3"/>
<path stroke="blue" d="M719 471l1 0 2 -2 2 -1 1 0 4 -4 1 0 2 -1 2 -2 1 0 4 -4 2 0 5 -5 1 0 1 -1 2 -1 2 -2 1 0 3 -3 2 -1 1 -1 1 0 5 -5 2 0 6 -6 1 0 2 -1 6 -6 2 0 7 -7 2 -1 1 -1 1 0 5 -5 2 -1 5 -5 1 0 2 -1 7 -7 2 -1 7 -7 2 -1 2 -2 1 0 4 -4 2 -1"/>
<path stroke="blue" d="M837 381l6 -6 2 -1 7 -7 2 -1 1 -1 1 -2 5 -5 2 -1 6 -6 2 -1 6 -6 1 -2 2 -1 7 -7 2 -1 2 -2 1 -2 3 -3 2 -1 4 -4 1 -2 2 -2 2 -1 4 -4 1 -2 2 -2 2 -1 2 -2 1 -2 3 -3 2 -1 1 -1 1 -2 11 -11 1 -2 2 -2 2 -1 1 -1 1 -2 4 -4 1 -2 2 -1"/>
<path stroke="blue" d="M950 270l2 -2 1 -2 8 -8 1 -2 2 -2"/>
<path stroke="#FFA500" d="M452 39l45 0"/>
<text stroke="none" fill="white" font-size="16" x="507" y="48">
i(vid3)
</text>
<path stroke="#FFA500" d="M60 720l0 -3 1 -2 0 -5 2 -6 1 -5 2 -6 2 -4 2 -2 2 -1 1 0 1 -1 1 0 1 -1 4 0 1 -1 4 0 1 -1 6 0 1 -1 7 0 1 -1 7 0 1 -1 6 0 1 -1 6 0 2 -1 5 0 1 -1 6 0 1 -1 6 0 1 -1 6 0 1 -1 5 0 1 -1 5 0 1 -1 6 0 1 -1 4 0 2 -1 5 0 1 -1 5 0"/>
<path stroke="#FFA500" d="M187 668l1 -1 5 0 1 -1 4 0 1 -1 5 0 1 -1 4 0 2 -1 4 0 1 -1 4 0 1 -1 4 0 1 -1 4 0 1 -1 4 0 2 -1 3 0 1 -1 5 0 1 -1 3 0 1 -1 4 0 1 -1 3 0 1 -1 5 0 1 -1 3 0 1 -1 4 0 1 -1 3 0 2 -1 2 0 1 -1 3 0 1 -1 4 0 1 -1 3 0 1 -1 3 0"/>
<path stroke="#FFA500" d="M299 645l1 -1 3 0 1 -1 4 0 1 -1 2 0 1 -1 4 0 1 -1 2 0 1 -1 4 0 1 -1 2 0 1 -1 2 0 2 -1 3 0 1 -1 2 0 1 -1 3 0 1 -1 3 0 1 -1 3 0 1 -1 2 0 1 -1 2 0 2 -1 2 0 1 -1 2 0 1 -1 3 0 1 -1 2 0 1 -1 2 0 1 -1 3 0 1 -1 2 0 1 -1 2 0"/>
<path stroke="#FFA500" d="M383 622l2 -1 2 0 1 -1 1 0 1 -1 3 0 1 -1 2 0 1 -1 2 0 1 -1 2 0 1 -1 2 0 1 -1 2 0 1 -1 2 0 1 -1 2 0 1 -1 2 0 2 -1 1 0 1 -1 2 0 1 -1 1 0 1 -1 3 0 1 -1 1 0 1 -1 2 0 1 -1 2 0 1 -1 2 0 1 -1 1 0 1 -1 2 0 1 -1 2 0 1 -1 1 0"/>
<path stroke="#FFA500" d="M450 599l1 -1 1 0 2 -1 2 0 1 -1 1 0 1 -1 1 0 1 -1 3 0 1 -1 1 0 1 -1 1 0 1 -1 2 0 1 -1 1 0 1 -1 2 0 1 -1 1 0 2 -1 1 0 1 -1 1 0 1 -1 1 0 1 -1 1 0 2 -1 1 0 1 -1 2 0 1 -1 1 0 1 -1 2 0 1 -1 1 0 1 -1 1 0 1 -1 1 0 2 -1 1 0"/>
<path stroke="#FFA500" d="M507 576l1 -1 1 0 1 -1 1 0 1 -1 1 0 2 -1 1 0 2 -2 1 0 1 -1 1 0 1 -1 2 0 1 -1 1 0 1 -1 1 0 1 -1 1 0 2 -1 1 0 1 -1 1 0 2 -2 1 0 1 -1 2 0 1 -1 1 0 1 -1 1 0 2 -2 1 0 2 -1 1 0 1 -1 1 0 2 -2 1 0 2 -1 1 0 1 -1 1 0 2 -2 1 0"/>
<path stroke="#FFA500" d="M564 548l1 -1 2 0 2 -2 1 0 1 -1 1 0 2 -2 2 0 2 -2 1 0 1 -1 1 0 1 -1 2 -1 1 0 1 -1 1 0 2 -2 1 0 1 -1 2 -1 1 0 2 -2 1 0 2 -2 1 0 2 -1 1 -1 1 0 2 -2 1 0 2 -2 2 0 2 -2 1 0 2 -2 1 0 2 -1 1 -1 1 0 2 -2 1 0 2 -2 2 -1 1 0 2 -2"/>
<path stroke="#FFA500" d="M631 509l1 0 3 -3 2 0 2 -2 1 0 3 -3 2 0 3 -3 1 0 3 -3 2 0 3 -3 1 0 3 -3 2 -1 1 0 3 -3 1 0 1 -1 2 -1 2 -2 1 0 4 -4 2 0 5 -5 1 0 1 -1 2 -1 3 -3 1 0 2 -2 2 -1 3 -3 1 0 3 -3 2 -1 3 -3 1 0 3 -3 2 -1 4 -4 1 0 2 -2 2 -1 6 -6"/>
<path stroke="#FFA500" d="M730 437l2 -1 2 -2 1 0 4 -4 2 -1 7 -7 2 -1 6 -6 2 -1 7 -7 2 -1 7 -7 2 -1 3 -3 1 -2 2 -2 2 -1 7 -7 2 -1 1 -1 1 -2 5 -5 2 -1 2 -2 1 -2 3 -3 2 -1 2 -2 1 -2 4 -4 2 -1 1 -2 5 -5 1 -2 2 -1 3 -3 1 -2 9 -9 1 -2 1 -1 2 -1 1 -1"/>
<path stroke="#FFA500" d="M846 327l1 -2 3 -3 1 -2 1 -1 2 -1 1 -2 3 -3 1 -2 7 -7 1 -2 6 -6 1 -2 2 -2 1 -2 1 -1 2 -1 1 -2 1 -1 1 -2 2 -2 1 -2 1 -1 2 -1 1 -2 1 -1 1 -2 2 -2 1 -2 2 -1 1 -2 2 -2 1 -2 1 -1 1 -2 5 -5 1 -2 1 -1 1 -2 1 -1 1 -2 2 -1 1 -2"/>
<path stroke="#FFA500" d="M916 242l1 -1 1 -2 1 -1 1 -2 4 -4 1 -2 1 -1 1 -2 1 -1 1 -2 4 -4 1 -2 1 -1 1 -2 1 -1 2 -4 2 -1 1 -2 1 -1 1 -2 1 -1 2 -4 4 -4 2 -4 1 -1 1 -2 3 -3 1 -2 1 -1 1 -2 1 -1 1 -2 1 -1"/>
<path stroke="green" d="M60 39l45 0"/>
<text stroke="none" fill="white" font-size="16" x="115" y="48">
i(vid4)
</text>
<path stroke="green" d="M60 720l0 -5 1 -5 0 -8 2 -7 1 -5 2 -4 2 -2 5 0 1 -1 6 0 1 -1 6 0 2 -1 7 0 2 -1 5 0 1 -1 7 0 1 -1 6 0 1 -1 6 0 1 -1 6 0 1 -1 5 0 1 -1 6 0 1 -1 5 0 1 -1 5 0 2 -1 4 0 1 -1 6 0 1 -1 5 0 1 -1 4 0 1 -1 5 0 1 -1 5 0 1 -1 4 0"/>
<path stroke="green" d="M198 665l1 -1 5 0 1 -1 4 0 2 -1 3 0 1 -1 5 0 1 -1 4 0 1 -1 4 0 1 -1 3 0 1 -1 5 0 1 -1 4 0 1 -1 3 0 1 -1 4 0 1 -1 3 0 1 -1 4 0 1 -1 3 0 1 -1 4 0 1 -1 3 0 1 -1 4 0 1 -1 2 0 1 -1 4 0 1 -1 3 0 1 -1 2 0 2 -1 3 0 1 -1 2 0 2 -1"/>
<path stroke="green" d="M306 641l3 0 1 -1 2 0 1 -1 4 0 1 -1 2 0 1 -1 3 0 1 -1 3 0 1 -1 3 0 1 -1 2 0 1 -1 2 0 1 -1 3 0 1 -1 2 0 1 -1 2 0 2 -1 3 0 1 -1 2 0 2 -1 1 0 1 -1 2 0 1 -1 2 0 2 -1 2 0 1 -1 2 0 1 -1 3 0 1 -1 2 0 1 -1 1 0 1 -1 3 0 1 -1 2 0"/>
<path stroke="green" d="M388 618l1 -1 2 0 2 -1 1 0 1 -1 2 0 1 -1 1 0 1 -1 3 0 1 -1 2 0 1 -1 1 0 1 -1 3 0 1 -1 1 0 1 -1 2 0 2 -1 1 0 1 -1 2 0 1 -1 1 0 1 -1 2 0 1 -1 2 0 1 -1 1 0 1 -1 1 0 2 -1 2 0 1 -1 1 0 1 -1 1 0 2 -1 2 0 1 -1 1 0 1 -1 1 0 1 -1"/>
<path stroke="green" d="M452 594l2 0 1 -1 1 0 1 -1 2 0 1 -1 1 0 2 -1 1 0 1 -1 1 0 1 -1 1 0 1 -1 2 0 1 -1 1 0 1 -1 1 0 1 -1 1 0 1 -1 3 0 1 -1 1 0 1 -1 1 0 1 -1 1 0 2 -1 1 0 1 -1 1 0 2 -2 1 0 1 -1 2 0 1 -1 1 0 1 -1 1 0 1 -1 1 0 2 -1 1 0 1 -1 1 0"/>
<path stroke="green" d="M509 570l1 -1 1 0 1 -1 1 0 2 -1 1 -1 1 0 1 -1 1 0 1 -1 1 0 1 -1 2 0 2 -2 1 0 1 -1 1 0 1 -1 2 0 2 -2 1 0 1 -1 1 0 1 -1 1 0 2 -1 1 -1 1 0 1 -1 1 0 2 -2 1 0 2 -1 1 0 2 -2 1 0 2 -2 2 0 1 -1 1 0 2 -2 1 0 2 -2 2 0 1 -1 1 0 2 -2"/>
<path stroke="green" d="M571 537l1 0 2 -2 2 0 2 -2 1 0 2 -2 1 0 2 -1 1 -1 1 0 2 -2 1 0 2 -2 2 0 3 -3 1 0 2 -2 1 0 2 -1 1 -1 1 0 3 -3 1 0 1 -1 2 -1 1 0 3 -3 1 0 1 -1 2 -1 1 -1 1 0 3 -3 1 0 1 -1 2 -1 1 -1 1 0 4 -4 1 0 2 -1 3 -3 1 0 2 -2 2 -1 1 -1"/>
<path stroke="green" d="M646 489l1 0 4 -4 1 0 2 -1 4 -4 1 0 2 -2 2 -1 2 -2 1 0 3 -3 2 -1 3 -3 1 0 3 -3 2 -1 4 -4 1 0 2 -2 2 -1 6 -6 2 -1 3 -3 1 0 3 -3 2 -1 7 -7 2 -1 7 -7 2 -1 6 -6 2 -1 5 -5 1 -2 1 -1 2 -1 7 -7 2 -1 2 -2 1 -2 3 -3 2 -1 3 -3 1 -2"/>
<path stroke="green" d="M762 390l3 -3 2 -1 2 -2 1 -2 4 -4 2 -1 1 -2 10 -10 1 -2 3 -3 2 -1 1 -2 3 -3 1 -2 2 -2 2 -1 1 -2 3 -3 1 -2 1 -1 2 -1 1 -2 2 -2 1 -2 2 -2 1 -2 2 -1 2 -2 1 -2 1 -1 1 -2 6 -6 1 -2 2 -2 1 -2 5 -5 1 -2 1 -1 1 -2 1 -1 2 -1 1 -2"/>
<path stroke="green" d="M846 296l1 -1 1 -2 1 -1 1 -2 1 -1 1 -2 2 -1 1 -1 1 -2 1 -1 1 -2 1 -1 1 -2 4 -4 1 -2 1 -1 1 -2 1 -1 1 -2 2 -1 2 -4 1 -1 1 -2 1 -1 1 -2 4 -4 2 -4 1 -1 1 -2 1 -1 1 -2 3 -3 1 -2 1 -1 2 -4 3 -3 1 -2 1 -1 2 -4 1 -1 2 -4 2 -1"/>
<path stroke="green" d="M906 214l2 -4 1 -1 2 -4 1 -1 1 -2 2 -2 1 -2 1 -1 3 -6 3 -3 2 -4 1 -1 4 -8 2 -1 4 -8 1 -1 2 -4 2 -2 2 -4 1 -1 4 -8 2 -2 3 -6 1 -1 2 -4 2 -2 5 -10 1 -1"/>
<path stroke="#FFC0C5" d="M452 55l45 0"/>
<text stroke="none" fill="white" font-size="16" x="507" y="64">
i(vid5)
</text>
<path stroke="#FFC0C5" d="M60 720l0 -7 1 -9 0 -12 2 -6 1 -1 1 0 1 -1 3 0 1 -1 7 0 1 -1 2 1 1 -1 4 0 1 -1 6 0 1 -1 1 1 1 -1 6 0 1 -1 7 0 1 -1 5 0 1 -1 5 0 1 -1 7 0 1 -1 6 0 1 -1 6 0 1 -1 4 0 2 -1 5 0 1 -1 5 0 1 -1 6 0 1 -1 4 0 1 -1 5 0 1 -1 5 0"/>
<path stroke="#FFC0C5" d="M185 667l1 -1 4 0 1 -1 5 0 1 -1 5 0 1 -1 3 0 1 -1 5 0 1 -1 4 0 2 -1 3 0 1 -1 3 0 2 -1 4 0 1 -1 4 0 1 -1 3 0 1 -1 4 0 1 -1 4 0 1 -1 4 0 1 -1 3 0 1 -1 3 0 1 -1 3 0 1 -1 4 0 1 -1 3 0 1 -1 4 0 1 -1 2 0 1 -1 4 0 1 -1 2 0"/>
<path stroke="#FFC0C5" d="M293 644l1 -1 4 0 1 -1 2 0 1 -1 4 0 1 -1 2 0 1 -1 3 0 2 -1 2 0 1 -1 2 0 1 -1 4 0 1 -1 2 0 1 -1 3 0 1 -1 2 0 1 -1 2 0 1 -1 3 0 1 -1 2 0 1 -1 2 0 2 -1 2 0 1 -1 2 0 1 -1 3 0 1 -1 2 0 1 -1 2 0 2 -1 2 0 1 -1 1 0 1 -1 2 0"/>
<path stroke="#FFC0C5" d="M374 621l2 -1 2 0 1 -1 2 0 1 -1 1 0 2 -1 2 0 1 -1 2 0 1 -1 2 0 1 -1 2 0 1 -1 1 0 1 -1 3 0 1 -1 1 0 1 -1 2 0 1 -1 1 0 2 -1 2 0 1 -1 1 0 1 -1 3 0 1 -1 1 0 1 -1 1 0 1 -1 2 0 2 -1 1 0 1 -1 1 0 1 -1 2 0 1 -1 2 0 1 -1 1 0"/>
<path stroke="#FFC0C5" d="M439 598l1 -1 1 0 1 -1 3 0 1 -1 1 0 1 -1 1 0 1 -1 1 0 1 -1 2 0 1 -1 1 0 1 -1 2 0 1 -1 1 0 2 -1 1 0 1 -1 1 0 1 -1 1 0 1 -1 2 0 1 -1 1 0 1 -1 1 0 1 -1 1 0 1 -1 2 0 1 -1 1 0 1 -1 1 0 1 -1 1 0 1 -1 2 0 1 -1 1 0 1 -1 1 0"/>
<path stroke="#FFC0C5" d="M493 575l1 -1 1 0 1 -1 2 -1 1 0 1 -1 1 0 1 -1 1 0 1 -1 2 0 1 -1 1 0 2 -2 1 0 1 -1 1 0 2 -1 1 0 1 -1 1 0 2 -2 1 0 1 -1 2 0 1 -1 1 0 2 -2 1 0 1 -1 2 0 2 -2 1 0 1 -1 1 0 2 -2 2 0 1 -1 1 0 2 -2 1 0 2 -2 2 0 1 -1 1 0 2 -2"/>
<path stroke="#FFC0C5" d="M554 543l1 0 1 -1 2 -1 1 0 2 -2 1 0 2 -2 1 0 2 -1 1 -1 1 0 2 -2 1 0 2 -2 2 0 2 -2 1 0 2 -2 1 0 2 -1 1 -1 1 0 3 -3 1 0 1 -1 2 -1 1 0 3 -3 1 0 2 -2 2 0 3 -3 1 0 3 -3 2 0 4 -4 1 0 1 -1 2 -1 1 -1 1 0 4 -4 1 0 2 -1 3 -3 1 0"/>
<path stroke="#FFC0C5" d="M632 494l3 -3 2 -1 1 0 5 -5 2 0 6 -6 1 0 2 -1 6 -6 1 0 2 -1 6 -6 2 -1 1 -1 1 0 5 -5 2 -1 7 -7 2 -1 2 -2 1 0 3 -3 2 -1 7 -7 2 -1 4 -4 1 -2 2 -2 2 -1 7 -7 2 -1 5 -5 1 -2 2 -1 15 -15 1 -2 2 -1 4 -4 1 -2 1 -1 2 -1 2 -2 1 -2"/>
<path stroke="#FFC0C5" d="M761 380l10 -10 1 -2 2 -2 2 -1 1 -2 2 -2 1 -2 2 -2 2 -1 1 -2 2 -2 1 -2 7 -7 1 -2 2 -2 1 -2 1 -1 2 -1 1 -2 1 -1 1 -2 2 -2 1 -2 2 -1 1 -1 1 -2 1 -1 1 -2 2 -2 1 -2 2 -1 1 -2 1 -1 1 -2 2 -2 1 -2 4 -4 1 -2 1 -1 1 -2 1 -1"/>
<path stroke="#FFC0C5" d="M833 295l1 -2 4 -4 1 -2 1 -1 1 -2 1 -1 1 -2 2 -1 1 -2 1 -1 2 -4 1 -1 1 -2 4 -4 2 -4 1 -1 1 -2 1 -1 1 -2 3 -3 2 -4 1 -1 2 -4 2 -1 2 -4 1 -1 2 -4 1 -1 1 -2 3 -3 3 -6 1 -1 2 -4 3 -3 3 -6 1 -1 1 -2 2 -2 2 -4 1 -1 4 -8 3 -3"/>
<path stroke="#FFC0C5" d="M907 187l6 -12 2 -1 6 -12 2 -2 7 -14 2 -2 7 -14 2 -2 7 -14 2 -2 2 -4 1 -3 3 -6 2 -2 3 -6 1 -3 1 -2 1 -1"/>
</svg>
