<?xml version="1.0" standalone="yes"?>
<!DOCTYPE svg PUBLIC "-//W3C//DTD SVG 1.1//EN"
 "http://www.w3.org/Graphics/SVG/1.1/DTD/svg11.dtd">
<svg xmlns="http://www.w3.org/2000/svg" version="1.1"
  width="100%" height="100%" viewBox="0 0 1024 768"
  style="fill: none; font-family: Helvetica;
 font: Helvetica;
">

<!-- Creator: NGspice -->

<rect x="0" y="0" width="1024" height="768" fill="black" stroke="none"/>
<text stroke="none" fill="white" font-size="16" x="358" y="752">
time
</text>
<text stroke="none" fill="white" font-size="16" x="10" y="16">
tran151: 
</text>
<path stroke="white" d="M50 720l0 -672"/>
<text stroke="none" fill="white" font-size="16" x="35" y="728">
0.0
</text>
<path stroke="white" stroke-dasharray="1,2" d="M165 720l0 -672"/>
<text stroke="none" fill="white" font-size="16" x="145" y="728">
10.0
</text>
<path stroke="white" stroke-dasharray="1,2" d="M280 720l0 -672"/>
<text stroke="none" fill="white" font-size="16" x="260" y="728">
20.0
</text>
<path stroke="white" stroke-dasharray="1,2" d="M395 720l0 -672"/>
<text stroke="none" fill="white" font-size="16" x="375" y="728">
30.0
</text>
<path stroke="white" stroke-dasharray="1,2" d="M510 720l0 -672"/>
<text stroke="none" fill="white" font-size="16" x="490" y="728">
40.0
</text>
<path stroke="white" stroke-dasharray="1,2" d="M625 720l0 -672"/>
<text stroke="none" fill="white" font-size="16" x="605" y="728">
50.0
</text>
<path stroke="white" stroke-dasharray="1,2" d="M740 720l0 -672"/>
<text stroke="none" fill="white" font-size="16" x="720" y="728">
60.0
</text>
<path stroke="white" stroke-dasharray="1,2" d="M855 720l0 -672"/>
<text stroke="none" fill="white" font-size="16" x="835" y="728">
70.0
</text>
<path stroke="white" stroke-dasharray="1,2" d="M970 720l0 -672"/>
<text stroke="none" fill="white" font-size="16" x="950" y="728">
80.0
</text>
<text stroke="none" fill="white" font-size="16" x="614" y="752">
ns
</text>
<path stroke="white" d="M50 720l920 0"/>
<text stroke="none" fill="white" font-size="16" x="8" y="728">
-0.0
</text>
<path stroke="white" stroke-dasharray="1,2" d="M50 664l920 0"/>
<text stroke="none" fill="white" font-size="16" x="18" y="672">
0.5
</text>
<path stroke="white" stroke-dasharray="1,2" d="M50 608l920 0"/>
<text stroke="none" fill="white" font-size="16" x="18" y="616">
1.0
</text>
<path stroke="white" stroke-dasharray="1,2" d="M50 552l920 0"/>
<text stroke="none" fill="white" font-size="16" x="18" y="560">
1.5
</text>
<path stroke="white" stroke-dasharray="1,2" d="M50 496l920 0"/>
<text stroke="none" fill="white" font-size="16" x="18" y="504">
2.0
</text>
<path stroke="white" stroke-dasharray="1,2" d="M50 440l920 0"/>
<text stroke="none" fill="white" font-size="16" x="18" y="448">
2.5
</text>
<path stroke="white" stroke-dasharray="1,2" d="M50 384l920 0"/>
<text stroke="none" fill="white" font-size="16" x="18" y="392">
3.0
</text>
<path stroke="white" stroke-dasharray="1,2" d="M50 328l920 0"/>
<text stroke="none" fill="white" font-size="16" x="18" y="336">
3.5
</text>
<path stroke="white" stroke-dasharray="1,2" d="M50 272l920 0"/>
<text stroke="none" fill="white" font-size="16" x="18" y="280">
4.0
</text>
<path stroke="white" stroke-dasharray="1,2" d="M50 216l920 0"/>
<text stroke="none" fill="white" font-size="16" x="18" y="224">
4.5
</text>
<path stroke="white" stroke-dasharray="1,2" d="M50 160l920 0"/>
<text stroke="none" fill="white" font-size="16" x="18" y="168">
5.0
</text>
<path stroke="white" stroke-dasharray="1,2" d="M50 104l920 0"/>
<text stroke="none" fill="white" font-size="16" x="18" y="112">
5.5
</text>
<path stroke="white" stroke-dasharray="1,2" d="M50 48l920 0"/>
<text stroke="none" fill="white" font-size="16" x="18" y="56">
6.0
</text>
<text stroke="none" fill="white" font-size="16" x="10" y="32">
m     
</text>
<path stroke="red" d="M460 23l46 0"/>
<text stroke="none" fill="white" font-size="16" x="516" y="32">
v(out3)
</text>
<path stroke="red" d="M50 720l0 -3 1 -3 0 -6 2 -7 1 -5 2 -8 2 -4 2 -1 1 -2 1 0 2 -2 1 0 1 -1 3 0 1 -1 4 0 2 -1 4 0 1 -1 6 0 1 -1 6 0 1 -1 5 0 1 -1 6 0 1 -1 4 0 2 -1 5 0 1 -1 5 0 1 -1 5 0 1 -1 5 0 1 -1 4 0 1 -1 5 0 1 -1 5 0 1 -1 5 0 1 -1 3 0 1 -1"/>
<path stroke="red" d="M165 661l5 0 1 -1 4 0 1 -1 4 0 1 -1 4 0 1 -1 5 0 1 -1 3 0 1 -1 4 0 1 -1 3 0 2 -1 3 0 1 -1 4 0 1 -1 3 0 1 -1 4 0 1 -1 3 0 2 -1 3 0 1 -1 4 0 1 -1 2 0 1 -1 4 0 1 -1 3 0 1 -1 3 0 1 -1 3 0 1 -1 3 0 1 -1 3 0 2 -1 2 0 1 -1 2 0"/>
<path stroke="red" d="M272 638l1 -1 4 0 1 -1 2 0 1 -1 3 0 1 -1 2 0 1 -1 4 0 1 -1 2 0 1 -1 3 0 1 -1 2 0 1 -1 3 0 1 -1 2 0 1 -1 3 0 1 -1 2 0 1 -1 2 0 2 -1 2 0 1 -1 2 0 1 -1 3 0 1 -1 1 0 1 -1 3 0 1 -1 2 0 1 -1 2 0 2 -1 1 0 1 -1 2 0 1 -1 3 0 1 -1"/>
<path stroke="red" d="M353 614l1 0 1 -1 2 0 2 -1 2 0 1 -1 1 0 1 -1 3 0 1 -1 1 0 1 -1 2 0 1 -1 2 0 1 -1 2 0 1 -1 1 0 2 -1 2 0 1 -1 1 0 1 -1 1 0 2 -1 2 0 1 -1 1 0 1 -1 1 0 2 -1 2 0 1 -1 1 0 1 -1 2 0 1 -1 2 0 1 -1 1 0 1 -1 2 0 1 -1 1 0 1 -1 1 0"/>
<path stroke="red" d="M417 591l1 -1 3 0 1 -1 1 0 1 -1 1 0 1 -1 2 0 1 -1 1 0 1 -1 1 0 1 -1 1 0 2 -1 1 0 1 -1 2 0 1 -1 1 0 2 -1 1 0 1 -1 1 0 1 -1 1 0 2 -1 1 0 1 -1 1 0 1 -1 1 0 1 -1 2 -1 1 0 1 -1 1 0 1 -1 1 0 1 -1 2 0 1 -1 1 0 1 -1 1 0 1 -1 2 0"/>
<path stroke="red" d="M474 567l1 -1 1 0 1 -1 1 0 2 -2 2 0 1 -1 1 0 1 -1 1 0 1 -1 1 0 2 -1 1 -1 1 0 1 -1 1 0 1 -1 2 0 2 -2 1 0 1 -1 1 0 1 -1 2 0 2 -2 1 0 1 -1 1 0 1 -1 2 -1 1 0 1 -1 1 0 2 -2 2 0 1 -1 1 0 2 -2 1 0 1 -1 2 -1 1 0 1 -1 1 0 2 -2 1 0"/>
<path stroke="red" d="M534 536l2 -1 1 -1 1 0 2 -2 1 0 2 -1 1 -1 1 0 2 -2 1 0 1 -1 2 -1 1 0 2 -2 1 0 2 -2 2 0 2 -2 1 0 2 -2 2 0 2 -2 1 0 3 -3 2 0 2 -2 1 0 3 -3 2 0 2 -2 1 0 2 -2 2 -1 1 0 3 -3 1 0 1 -1 2 -1 1 -1 1 0 4 -4 2 0 3 -3 1 0 1 -1 2 -1"/>
<path stroke="red" d="M612 488l2 -2 1 0 3 -3 2 -1 1 0 4 -4 1 0 2 -1 4 -4 1 0 2 -1 5 -5 1 0 2 -1 5 -5 1 0 2 -1 5 -5 2 -1 1 -1 1 0 4 -4 2 -1 5 -5 1 0 2 -1 5 -5 2 -1 6 -6 2 -1 6 -6 2 -1 5 -5 2 -1 6 -6 2 -1 6 -6 2 -1 5 -5 2 -1 1 -2 5 -5 2 -1 4 -4"/>
<path stroke="red" d="M739 384l1 -2 1 -1 2 -1 20 -20 1 -2 2 -1 3 -3 1 -2 1 -1 2 -1 2 -2 1 -2 3 -3 2 -1 1 -2 3 -3 1 -2 1 -1 2 -1 1 -1 1 -2 2 -2 1 -2 2 -1 2 -2 1 -2 2 -2 1 -2 2 -1 2 -2 1 -2 2 -2 1 -2 2 -1 1 -1 1 -2 2 -2 1 -2 2 -1 1 -1 1 -2 1 -1"/>
<path stroke="red" d="M822 295l1 -2 6 -6 1 -2 1 -1 1 -2 1 -1 2 -1 1 -2 1 -1 1 -2 5 -5 1 -2 1 -1 1 -2 1 -1 1 -2 2 -1 1 -1 1 -2 1 -1 1 -2 1 -1 1 -2 2 -1 1 -2 1 -1 1 -2 1 -1 1 -2 2 -1 1 -2 1 -1 1 -2 1 -1 1 -2 4 -4 2 -4 1 -1 1 -2 4 -4 2 -4 1 -1 1 -2"/>
<path stroke="red" d="M886 212l2 -1 1 -2 1 -1 2 -4 1 -1 1 -2 3 -3 1 -2 1 -1 2 -4 3 -3 1 -2 1 -1 2 -4 3 -3 1 -2 1 -1 2 -4 1 -1 1 -2 2 -2 1 -2 1 -1 3 -6 3 -3 1 -2 1 -1 3 -6 3 -3 3 -6 1 -1 1 -2 2 -2 2 -4 1 -1 3 -6 2 -2 1 -2 1 -1 3 -6 2 -2 2 -4 1 -1"/>
<path stroke="red" d="M960 102l3 -6 2 -2 4 -8 1 -1"/>
<path stroke="blue" d="M50 23l46 0"/>
<text stroke="none" fill="white" font-size="16" x="106" y="32">
v(out4)
</text>
<path stroke="blue" d="M50 720l0 -3 1 -3 0 -4 2 -5 2 -4 1 -1 1 0 1 -1 7 0 1 -1 13 0 1 -1 13 0 1 -1 12 0 1 -1 10 0 1 -1 12 0 1 -1 9 0 1 -1 11 0 1 -1 9 0 1 -1 9 0 1 -1 10 0 1 -1 8 0 1 -1 8 0 1 -1 8 0 1 -1 8 0 2 -1 8 0 1 -1 7 0 1 -1 7 0 1 -1 7 0"/>
<path stroke="blue" d="M253 681l1 -1 7 0 1 -1 7 0 1 -1 6 0 1 -1 6 0 1 -1 7 0 1 -1 6 0 1 -1 5 0 2 -1 4 0 1 -1 6 0 1 -1 6 0 1 -1 5 0 1 -1 6 0 1 -1 4 0 2 -1 4 0 1 -1 5 0 1 -1 5 0 1 -1 4 0 2 -1 4 0 1 -1 5 0 1 -1 4 0 1 -1 4 0 1 -1 5 0 1 -1 4 0 1 -1"/>
<path stroke="blue" d="M399 657l3 0 1 -1 5 0 1 -1 4 0 1 -1 3 0 1 -1 4 0 1 -1 5 0 1 -1 3 0 1 -1 4 0 1 -1 2 0 1 -1 4 0 1 -1 3 0 2 -1 3 0 1 -1 4 0 1 -1 2 0 1 -1 4 0 1 -1 3 0 1 -1 3 0 1 -1 3 0 1 -1 3 0 1 -1 2 0 1 -1 4 0 1 -1 2 0 1 -1 3 0 1 -1 3 0"/>
<path stroke="blue" d="M502 634l1 -1 3 0 1 -1 2 0 1 -1 3 0 1 -1 2 0 1 -1 3 0 1 -1 2 0 1 -1 4 0 1 -1 2 0 1 -1 1 0 1 -1 3 0 1 -1 2 0 1 -1 3 0 1 -1 2 0 1 -1 3 0 1 -1 2 0 1 -1 1 0 1 -1 3 0 1 -1 2 0 1 -1 3 0 1 -1 1 0 1 -1 2 0 2 -1 1 0 1 -1 2 0 1 -1"/>
<path stroke="blue" d="M579 610l3 0 1 -1 1 0 1 -1 2 0 2 -1 1 0 1 -1 2 0 1 -1 1 0 2 -1 2 0 1 -1 1 0 1 -1 1 0 2 -1 2 0 1 -1 1 0 1 -1 3 0 1 -1 1 0 1 -1 1 0 1 -1 3 0 1 -1 1 0 1 -1 1 0 1 -1 2 0 1 -1 2 0 1 -1 1 0 2 -1 1 0 1 -1 1 0 1 -1 1 0 1 -1 2 0"/>
<path stroke="blue" d="M643 587l1 -1 2 0 1 -1 1 0 1 -1 2 0 1 -1 1 0 1 -1 1 0 1 -1 2 0 1 -1 1 0 1 -1 1 0 1 -1 1 0 2 -1 1 0 1 -1 1 0 1 -1 1 0 1 -1 2 0 1 -1 1 0 1 -1 1 0 1 -1 2 0 1 -1 1 0 1 -1 1 0 1 -1 1 0 2 -1 1 -1 1 0 1 -1 1 0 1 -1 1 0 2 -1 1 0"/>
<path stroke="blue" d="M698 563l1 -1 1 0 2 -2 2 0 1 -1 1 0 1 -1 1 0 1 -1 1 0 2 -1 1 -1 1 0 1 -1 1 0 1 -1 1 0 2 -1 1 -1 1 0 1 -1 1 0 1 -1 2 -1 1 0 1 -1 1 0 2 -2 1 0 2 -1 1 0 2 -2 1 0 1 -1 1 0 2 -1 1 -1 1 0 2 -2 1 0 2 -1 1 0 2 -2 1 0 2 -2 2 0 2 -2"/>
<path stroke="blue" d="M760 530l1 0 2 -2 1 0 2 -1 1 -1 1 0 2 -2 1 0 2 -1 1 -1 1 0 2 -2 1 0 1 -1 2 -1 1 0 2 -2 1 0 2 -2 2 -1 1 0 2 -2 1 0 1 -1 2 -1 1 -1 1 0 2 -2 1 0 1 -1 2 -1 1 -1 1 0 3 -3 1 0 2 -1 2 -2 1 0 2 -2 2 -1 1 0 4 -4 1 0 2 -1 2 -2 1 0"/>
<path stroke="blue" d="M830 487l3 -3 2 -1 1 0 4 -4 2 0 5 -5 1 0 2 -1 4 -4 1 0 1 -1 2 -1 4 -4 1 0 2 -1 6 -6 2 0 6 -6 2 -1 3 -3 1 0 1 -1 2 -1 6 -6 2 -1 6 -6 2 0 5 -5 2 -1 6 -6 2 -1 6 -6 2 -1 4 -4 1 -2 2 -1 6 -6 2 -1 6 -6 2 -1 1 -2 4 -4 2 -1 4 -4"/>
<path stroke="blue" d="M961 379l1 -2 1 -1 2 -1 5 -5"/>
<path stroke="#FFA500" d="M460 39l46 0"/>
<text stroke="none" fill="white" font-size="16" x="516" y="48">
v(out5)
</text>
<path stroke="#FFA500" d="M50 720l0 -2 1 -3 0 -3 2 -2 2 0 1 -1 1 1 1 -1 25 0 1 -1 1 1 1 -1 22 0 1 -1 23 0 1 -1 22 0 1 -1 19 0 1 -1 18 0 1 -1 17 0 2 -1 16 0 1 -1 15 0 1 -1 14 0 1 -1 14 0 1 -1 14 0 1 -1 12 0 2 -1 11 0 1 -1 12 0 1 -1 10 0 1 -1 11 0"/>
<path stroke="#FFA500" d="M353 693l1 -1 10 0 1 -1 11 0 1 -1 9 0 1 -1 9 0 2 -1 8 0 1 -1 8 0 1 -1 9 0 1 -1 7 0 1 -1 8 0 2 -1 8 0 1 -1 7 0 1 -1 7 0 1 -1 7 0 1 -1 6 0 1 -1 7 0 1 -1 6 0 1 -1 7 0 1 -1 6 0 1 -1 6 0 1 -1 5 0 2 -1 5 0 1 -1 5 0 1 -1 6 0"/>
<path stroke="#FFA500" d="M546 670l1 -1 5 0 1 -1 6 0 1 -1 4 0 2 -1 4 0 1 -1 5 0 1 -1 5 0 1 -1 4 0 2 -1 4 0 1 -1 4 0 1 -1 4 0 2 -1 4 0 1 -1 4 0 1 -1 5 0 1 -1 3 0 1 -1 4 0 1 -1 5 0 1 -1 3 0 1 -1 4 0 1 -1 3 0 1 -1 4 0 1 -1 4 0 1 -1 3 0 1 -1 4 0"/>
<path stroke="#FFA500" d="M667 647l1 -1 2 0 1 -1 4 0 1 -1 3 0 2 -1 2 0 1 -1 3 0 2 -1 3 0 1 -1 2 0 2 -1 3 0 1 -1 3 0 1 -1 2 0 1 -1 4 0 1 -1 2 0 1 -1 2 0 2 -1 3 0 1 -1 3 0 1 -1 2 0 1 -1 2 0 2 -1 2 0 1 -1 2 0 1 -1 3 0 1 -1 2 0 1 -1 3 0 1 -1 2 0"/>
<path stroke="#FFA500" d="M754 624l1 -1 3 0 1 -1 2 0 1 -1 2 0 2 -1 2 0 1 -1 1 0 1 -1 3 0 1 -1 2 0 1 -1 3 0 1 -1 1 0 1 -1 2 0 1 -1 3 0 1 -1 1 0 1 -1 3 0 1 -1 2 0 1 -1 1 0 1 -1 3 0 1 -1 1 0 1 -1 2 0 2 -1 1 0 1 -1 2 0 1 -1 2 0 1 -1 1 0 1 -1 2 0"/>
<path stroke="#FFA500" d="M824 601l1 -1 2 0 1 -1 2 0 1 -1 1 0 1 -1 2 0 1 -1 2 0 1 -1 1 0 2 -1 1 0 1 -1 1 0 1 -1 2 0 2 -1 1 0 1 -1 1 0 1 -1 1 0 1 -1 2 0 1 -1 2 0 1 -1 1 0 2 -1 1 0 1 -1 1 0 1 -1 1 0 1 -1 2 0 1 -1 1 0 1 -1 1 0 1 -1 1 0 2 -1 1 0"/>
<path stroke="#FFA500" d="M882 578l1 -1 1 0 1 -1 1 0 2 -1 1 0 1 -1 1 0 1 -1 1 0 1 -1 2 0 1 -1 1 0 1 -1 1 0 1 -1 1 0 2 -1 1 0 1 -1 1 0 1 -1 1 0 2 -1 1 -1 1 0 1 -1 1 0 1 -1 1 0 2 -1 1 0 1 -1 1 0 2 -2 1 0 2 -1 1 0 1 -1 1 0 2 -2 2 0 1 -1 1 0 1 -1"/>
<path stroke="#FFA500" d="M937 552l1 0 2 -2 2 0 1 -1 1 0 2 -2 1 0 1 -1 2 0 2 -2 1 0 1 -1 1 0 2 -1 1 -1 1 0 1 -1 1 0 2 -2 2 0 2 -2 1 0 1 -1 1 0"/>
<path stroke="green" d="M50 39l46 0"/>
<text stroke="none" fill="white" font-size="16" x="106" y="48">
v(in)/14
</text>
<path stroke="green" d="M50 720l1 -1 2 -1 1 -1 1 0 3 -3 2 -1 1 0 4 -4 1 0 2 -1 3 -3 1 0 2 -2 2 -1 1 -1 1 0 3 -3 2 -1 1 0 4 -4 1 0 2 -1 3 -3 1 0 2 -2 2 -1 1 -1 1 0 3 -3 2 -1 1 0 4 -4 1 0 2 -1 3 -3 1 0 2 -2 2 -1 1 -1 1 0 3 -3 2 -1 1 0 4 -4 1 0"/>
<path stroke="green" d="M135 661l2 -1 3 -3 1 0 2 -2 2 -1 1 -1 1 0 3 -3 2 -1 1 0 4 -4 1 0 2 -1 3 -3 1 0 2 -2 2 -1 1 -1 1 0 3 -3 2 -1 1 0 4 -4 1 0 2 -1 3 -3 1 0 2 -2 2 -1 1 -1 1 0 3 -3 2 -1 1 0 4 -4 1 0 2 -1 3 -3 1 0 2 -2 2 -1 1 -1 1 0 3 -3 2 -1"/>
<path stroke="green" d="M221 601l1 0 4 -4 1 0 2 -1 3 -3 1 0 2 -2 2 -1 1 -1 1 0 3 -3 2 -1 1 0 4 -4 1 0 2 -1 3 -3 1 0 2 -2 2 -1 1 -1 1 0 3 -3 2 -1 1 0 4 -4 1 0 2 -1 3 -3 1 0 2 -2 2 -1 1 -1 1 0 3 -3 2 -1 1 0 4 -4 1 0 2 -1 3 -3 1 0 2 -2 2 -1 1 -1"/>
<path stroke="green" d="M307 541l1 0 3 -3 2 -1 1 0 4 -4 1 0 2 -1 3 -3 1 0 2 -2 2 -1 1 -1 1 0 3 -3 2 -1 1 0 4 -4 1 0 2 -1 3 -3 1 0 2 -2 2 -1 1 -1 1 0 3 -3 2 -1 1 0 4 -4 1 0 2 -1 3 -3 1 0 2 -2 2 -1 1 -1 1 0 3 -3 2 -1 1 0 4 -4 1 0 2 -1 3 -3 1 0"/>
<path stroke="green" d="M394 481l2 -2 2 -1 1 -1 1 0 3 -3 2 -1 1 0 4 -4 1 0 2 -1 3 -3 1 0 2 -2 2 -1 1 -1 1 0 3 -3 2 -1 1 0 4 -4 1 0 2 -1 3 -3 1 0 2 -2 2 -1 1 -1 1 0 3 -3 2 -1 1 0 4 -4 1 0 2 -1 3 -3 1 0 2 -2 2 -1 1 -1 1 0 3 -3 2 -1 1 0 4 -4 1 0"/>
<path stroke="green" d="M480 421l2 -1 3 -3 1 0 2 -2 2 -1 1 -1 1 0 3 -3 2 -1 1 0 4 -4 1 0 2 -1 3 -3 1 0 2 -2 2 -1 1 -1 1 0 3 -3 2 -1 1 0 4 -4 1 0 2 -1 3 -3 1 0 2 -2 2 -1 1 -1 1 0 3 -3 2 -1 1 0 4 -4 1 0 2 -1 3 -3 1 0 2 -2 2 -1 1 -1 1 0 3 -3 2 -1"/>
<path stroke="green" d="M566 361l1 0 4 -4 1 0 2 -1 3 -3 1 0 2 -2 2 -1 1 -1 1 0 3 -3 2 -1 1 0 4 -4 1 0 2 -1 3 -3 1 0 2 -2 2 -1 1 -1 1 0 3 -3 2 -1 1 0 4 -4 1 0 2 -1 3 -3 1 0 2 -2 2 -1 1 -1 1 0 3 -3 2 -1 1 0 4 -4 1 0 2 -1 3 -3 1 0 2 -2 2 -1 1 -1"/>
<path stroke="green" d="M652 301l1 0 3 -3 2 -1 1 0 4 -4 1 0 2 -1 3 -3 1 0 2 -2 2 -1 1 -1 1 0 3 -3 2 -1 1 0 4 -4 1 0 2 -1 3 -3 1 0 2 -2 2 -1 1 -1 1 0 3 -3 2 -1 1 0 4 -4 1 0 2 -1 3 -3 1 0 2 -2 2 -1 1 -1 1 0 3 -3 2 -1 1 0 4 -4 1 0 2 -1 3 -3 1 0"/>
<path stroke="green" d="M739 241l2 -2 2 -1 1 -1 1 0 3 -3 2 -1 1 0 4 -4 1 0 2 -1 3 -3 1 0 2 -2 2 -1 1 -1 1 0 3 -3 2 -1 1 0 4 -4 1 0 2 -1 3 -3 1 0 2 -2 2 -1 1 -1 1 0 3 -3 2 -1 1 0 4 -4 1 0 2 -1 3 -3 1 0 2 -2 2 -1 1 -1 1 0 3 -3 2 -1 1 0 4 -4 1 0"/>
<path stroke="green" d="M825 181l2 -1 3 -3 1 0 2 -2 2 -1 1 -1 1 0 3 -3 2 -1 1 0 4 -4 1 0 2 -1 3 -3 1 0 2 -2 2 -1 1 -1 1 0 3 -3 2 -1 1 0 4 -4 1 0 2 -1 3 -3 1 0 2 -2 2 -1 1 -1 1 0 3 -3 2 -1 1 0 4 -4 1 0 2 -1 3 -3 1 0 2 -2 2 -1 1 -1 1 0 3 -3 2 -1"/>
<path stroke="green" d="M911 121l1 0 4 -4 1 0 2 -1 3 -3 1 0 2 -2 2 -1 1 -1 1 0 3 -3 2 -1 1 0 4 -4 1 0 2 -1 3 -3 1 0 2 -2 2 -1 1 -1 1 0 3 -3 2 -1 1 0 4 -4 1 0 2 -1 3 -3 1 0 1 -1"/>
</svg>
