<?xml version="1.0" standalone="yes"?>
<!DOCTYPE svg PUBLIC "-//W3C//DTD SVG 1.1//EN"
 "http://www.w3.org/Graphics/SVG/1.1/DTD/svg11.dtd">
<svg xmlns="http://www.w3.org/2000/svg" version="1.1"
  width="100%" height="100%" viewBox="0 0 1024 768"
  style="fill: none; font-family: Helvetica;
 font: Helvetica;
">

<!-- Creator: NGspice -->

<rect x="0" y="0" width="1024" height="768" fill="black" stroke="none"/>
<text stroke="none" fill="white" font-size="16" x="358" y="752">
time
</text>
<text stroke="none" fill="white" font-size="16" x="10" y="16">
tran151: 
</text>
<path stroke="white" d="M60 720l0 -672"/>
<text stroke="none" fill="white" font-size="16" x="45" y="728">
0.0
</text>
<path stroke="white" stroke-dasharray="1,2" d="M173 720l0 -672"/>
<text stroke="none" fill="white" font-size="16" x="153" y="728">
10.0
</text>
<path stroke="white" stroke-dasharray="1,2" d="M286 720l0 -672"/>
<text stroke="none" fill="white" font-size="16" x="266" y="728">
20.0
</text>
<path stroke="white" stroke-dasharray="1,2" d="M399 720l0 -672"/>
<text stroke="none" fill="white" font-size="16" x="379" y="728">
30.0
</text>
<path stroke="white" stroke-dasharray="1,2" d="M512 720l0 -672"/>
<text stroke="none" fill="white" font-size="16" x="492" y="728">
40.0
</text>
<path stroke="white" stroke-dasharray="1,2" d="M625 720l0 -672"/>
<text stroke="none" fill="white" font-size="16" x="605" y="728">
50.0
</text>
<path stroke="white" stroke-dasharray="1,2" d="M738 720l0 -672"/>
<text stroke="none" fill="white" font-size="16" x="718" y="728">
60.0
</text>
<path stroke="white" stroke-dasharray="1,2" d="M851 720l0 -672"/>
<text stroke="none" fill="white" font-size="16" x="831" y="728">
70.0
</text>
<path stroke="white" stroke-dasharray="1,2" d="M964 720l0 -672"/>
<text stroke="none" fill="white" font-size="16" x="944" y="728">
80.0
</text>
<text stroke="none" fill="white" font-size="16" x="614" y="752">
ns
</text>
<path stroke="white" d="M60 720l904 0"/>
<text stroke="none" fill="white" font-size="16" x="18" y="728">
-0.0
</text>
<path stroke="white" stroke-dasharray="1,2" d="M60 636l904 0"/>
<text stroke="none" fill="white" font-size="16" x="28" y="644">
5.0
</text>
<path stroke="white" stroke-dasharray="1,2" d="M60 552l904 0"/>
<text stroke="none" fill="white" font-size="16" x="18" y="560">
10.0
</text>
<path stroke="white" stroke-dasharray="1,2" d="M60 468l904 0"/>
<text stroke="none" fill="white" font-size="16" x="18" y="476">
15.0
</text>
<path stroke="white" stroke-dasharray="1,2" d="M60 384l904 0"/>
<text stroke="none" fill="white" font-size="16" x="18" y="392">
20.0
</text>
<path stroke="white" stroke-dasharray="1,2" d="M60 300l904 0"/>
<text stroke="none" fill="white" font-size="16" x="18" y="308">
25.0
</text>
<path stroke="white" stroke-dasharray="1,2" d="M60 216l904 0"/>
<text stroke="none" fill="white" font-size="16" x="18" y="224">
30.0
</text>
<path stroke="white" stroke-dasharray="1,2" d="M60 132l904 0"/>
<text stroke="none" fill="white" font-size="16" x="18" y="140">
35.0
</text>
<path stroke="white" stroke-dasharray="1,2" d="M60 48l904 0"/>
<text stroke="none" fill="white" font-size="16" x="18" y="56">
40.0
</text>
<text stroke="none" fill="white" font-size="16" x="10" y="32">
m     
</text>
<path stroke="red" d="M452 23l45 0"/>
<text stroke="none" fill="white" font-size="16" x="507" y="32">
v(out1)
</text>
<path stroke="red" d="M60 720l0 -1 1 0 0 -1 3 -3 2 -4 1 -1 1 -2 1 -1 1 -2 2 -1 1 -2 2 -2 1 -2 1 -1 1 -2 2 -1 1 -1 1 -2 3 -3 1 -2 1 -1 2 -1 1 -1 1 -2 5 -5 2 -1 1 -2 5 -5 2 -1 7 -7 2 -1 2 -2 1 0 4 -4 2 -1 2 -2 1 0 3 -3 2 -1 1 -1 1 0 3 -3 1 0 1 -1"/>
<path stroke="red" d="M139 641l2 -1 1 -1 1 0 3 -3 1 0 1 -1 2 -1 1 -1 1 0 2 -2 1 0 2 -2 2 0 2 -2 1 0 2 -2 1 0 2 -1 1 -1 1 0 1 -1 1 0 2 -2 1 0 2 -1 1 0 2 -2 1 0 1 -1 1 0 1 -1 2 -1 1 0 1 -1 1 0 1 -1 1 0 1 -1 2 -1 1 0 1 -1 1 0 1 -1 1 0 1 -1 1 0 2 -1"/>
<path stroke="red" d="M202 606l1 -1 1 0 1 -1 1 0 1 -1 1 0 1 -1 2 0 1 -1 1 0 1 -1 1 0 1 -1 1 0 2 -1 1 -1 1 0 1 -1 1 0 1 -1 1 0 1 -1 2 0 1 -1 1 0 1 -1 1 0 1 -1 1 0 1 -1 2 0 1 -1 1 0 1 -1 1 0 1 -1 1 0 2 -1 1 0 1 -1 1 0 1 -1 1 0 1 -1 1 0 2 -1 1 0"/>
<path stroke="red" d="M255 582l1 -1 1 0 1 -1 1 0 1 -1 1 0 2 -1 1 0 1 -1 1 0 1 -1 2 0 1 -1 2 0 1 -1 1 0 1 -1 1 0 1 -1 1 0 2 -1 1 0 1 -1 1 0 1 -1 1 0 1 -1 1 0 2 -1 1 0 1 -1 1 0 1 -1 1 0 1 -1 1 0 2 -1 1 0 1 -1 1 0 1 -1 1 0 1 -1 2 0 1 -1 1 0 1 -1"/>
<path stroke="red" d="M309 558l1 0 1 -1 1 0 1 -1 2 0 1 -1 1 0 1 -1 1 0 1 -1 1 0 1 -1 2 0 1 -1 1 0 1 -1 1 0 1 -1 1 0 2 -1 1 0 1 -1 1 0 1 -1 1 0 1 -1 1 0 2 -1 1 0 1 -1 1 0 1 -1 1 0 1 -1 1 0 2 -1 1 0 1 -1 1 0 1 -1 1 0 1 -1 2 0 1 -1 1 0 1 -1 1 0"/>
<path stroke="red" d="M362 535l2 -2 1 0 2 -1 1 0 1 -1 1 0 1 -1 1 0 1 -1 1 0 2 -1 1 0 1 -1 1 0 1 -1 1 0 1 -1 1 0 2 -1 1 -1 1 0 1 -1 1 0 1 -1 1 0 2 -1 1 0 1 -1 1 0 2 -2 1 0 1 -1 2 0 1 -1 1 0 1 -1 1 0 1 -1 1 0 1 -1 2 -1 1 0 1 -1 1 0 1 -1 1 0 1 -1"/>
<path stroke="red" d="M417 508l2 -1 1 0 1 -1 1 0 1 -1 1 0 1 -1 1 0 2 -1 1 -1 1 0 1 -1 1 0 1 -1 1 0 1 -1 2 -1 1 0 1 -1 1 0 2 -2 1 0 2 -1 1 0 1 -1 1 0 2 -2 1 0 1 -1 2 0 2 -2 1 0 1 -1 1 0 2 -2 2 0 1 -1 1 0 1 -1 1 0 2 -2 2 0 2 -2 1 0 1 -1 1 0 2 -2"/>
<path stroke="red" d="M478 476l2 0 1 -1 1 0 2 -2 1 0 1 -1 1 0 2 -1 1 -1 1 0 2 -2 1 0 1 -1 1 0 2 -1 1 -1 1 0 2 -2 1 0 1 -1 2 0 2 -2 1 0 2 -2 1 0 1 -1 2 -1 1 0 1 -1 1 0 2 -2 1 0 1 -1 2 -1 1 0 2 -2 1 0 2 -2 2 0 2 -2 1 0 2 -2 1 0 1 -1 2 -1 1 0 2 -2"/>
<path stroke="red" d="M544 439l1 0 2 -2 1 0 2 -1 1 -1 1 0 2 -2 1 0 1 -1 2 -1 1 0 2 -2 1 0 2 -2 1 0 2 -1 1 -1 1 0 2 -2 1 0 2 -2 2 0 3 -3 1 0 2 -2 2 0 2 -2 1 0 3 -3 1 0 2 -1 1 -1 1 0 2 -2 1 0 2 -2 2 -1 1 0 2 -2 1 0 3 -3 2 0 3 -3 1 0 2 -2 2 0 3 -3"/>
<path stroke="red" d="M622 391l1 0 3 -3 2 0 2 -2 1 0 3 -3 1 0 2 -1 2 -2 1 0 3 -3 2 0 3 -3 1 0 3 -3 2 0 3 -3 1 0 3 -3 2 0 3 -3 1 0 2 -2 2 -1 1 -1 1 0 3 -3 1 0 1 -1 2 -1 1 -1 1 0 4 -4 1 0 2 -1 2 -2 1 0 3 -3 2 -1 1 0 4 -4 1 0 1 -1 2 -1 2 -2 1 0"/>
<path stroke="red" d="M709 333l4 -4 2 0 4 -4 1 0 2 -2 2 -1 1 -1 1 0 4 -4 2 0 5 -5 1 0 1 -1 2 -1 2 -2 1 0 4 -4 2 -1 1 0 5 -5 2 0 5 -5 1 0 1 -1 2 -1 3 -3 1 0 3 -3 2 -1 2 -2 1 0 3 -3 2 -1 1 -1 1 0 5 -5 2 -1 1 0 6 -6 2 0 6 -6 2 -1 1 0 6 -6 2 -1 1 0"/>
<path stroke="red" d="M820 251l6 -6 2 -1 1 0 6 -6 2 -1 1 -1 1 0 4 -4 2 -1 3 -3 1 0 3 -3 2 -1 6 -6 1 0 2 -1 6 -6 2 -1 2 -2 1 0 4 -4 2 -1 6 -6 1 0 2 -1 6 -6 2 -1 4 -4 1 0 2 -2 2 -1 7 -7 2 -1 4 -4 1 0 1 -1 2 -1 7 -7 2 -1 7 -7 2 -1 1 -1 1 0 5 -5"/>
<path stroke="red" d="M948 146l2 -1 6 -6 2 -1 6 -6"/>
<path stroke="blue" d="M60 23l45 0"/>
<text stroke="none" fill="white" font-size="16" x="115" y="32">
v(out2)
</text>
<path stroke="blue" d="M60 720l1 -1 0 -1 2 -1 5 -5 1 0 1 -1 2 0 1 -1 1 0 1 -1 5 0 1 -1 6 0 2 -1 13 0 1 -1 21 0 1 -1 19 0 1 -1 18 0 1 -1 17 0 1 -1 17 0 1 -1 15 0 1 -1 15 0 1 -1 14 0 1 -1 13 0 1 -1 13 0 1 -1 12 0 2 -1 12 0 1 -1 11 0 2 -1 10 0 1 -1"/>
<path stroke="blue" d="M326 692l10 0 1 -1 10 0 1 -1 11 0 1 -1 9 0 1 -1 9 0 1 -1 9 0 1 -1 9 0 1 -1 8 0 1 -1 8 0 2 -1 7 0 2 -1 7 0 2 -1 6 0 2 -1 7 0 2 -1 6 0 1 -1 7 0 1 -1 7 0 1 -1 7 0 1 -1 6 0 1 -1 7 0 1 -1 6 0 1 -1 5 0 1 -1 6 0 1 -1 6 0 1 -1"/>
<path stroke="blue" d="M527 669l6 0 1 -1 5 0 2 -1 5 0 1 -1 6 0 1 -1 5 0 1 -1 5 0 2 -1 4 0 1 -1 5 0 1 -1 6 0 1 -1 4 0 1 -1 5 0 1 -1 4 0 2 -1 4 0 1 -1 4 0 1 -1 4 0 1 -1 5 0 1 -1 5 0 1 -1 3 0 1 -1 5 0 1 -1 3 0 1 -1 5 0 1 -1 3 0 2 -1 3 0 1 -1 5 0"/>
<path stroke="blue" d="M663 646l1 -1 3 0 1 -1 4 0 1 -1 3 0 1 -1 4 0 1 -1 3 0 1 -1 4 0 1 -1 3 0 1 -1 4 0 1 -1 3 0 1 -1 4 0 1 -1 3 0 1 -1 4 0 1 -1 2 0 1 -1 4 0 1 -1 3 0 1 -1 3 0 1 -1 3 0 1 -1 4 0 1 -1 2 0 1 -1 4 0 1 -1 2 0 1 -1 2 0 2 -1 3 0 1 -1"/>
<path stroke="blue" d="M762 622l2 0 1 -1 4 0 1 -1 2 0 1 -1 3 0 1 -1 3 0 1 -1 3 0 1 -1 2 0 1 -1 2 0 1 -1 3 0 1 -1 2 0 1 -1 4 0 1 -1 2 0 1 -1 2 0 2 -1 2 0 1 -1 2 0 1 -1 3 0 1 -1 2 0 1 -1 2 0 1 -1 3 0 1 -1 2 0 1 -1 2 0 2 -1 2 0 1 -1 1 0 1 -1 3 0"/>
<path stroke="blue" d="M845 599l1 -1 2 0 1 -1 2 0 1 -1 3 0 1 -1 2 0 1 -1 1 0 1 -1 3 0 1 -1 2 0 1 -1 1 0 2 -1 2 0 1 -1 2 0 1 -1 1 0 2 -1 2 0 1 -1 2 0 1 -1 1 0 2 -1 2 0 1 -1 2 0 1 -1 2 0 1 -1 2 0 1 -1 1 0 1 -1 3 0 1 -1 1 0 1 -1 2 0 1 -1 1 0 2 -1"/>
<path stroke="blue" d="M915 575l2 0 1 -1 1 0 1 -1 3 0 1 -1 1 0 1 -1 2 0 1 -1 1 0 2 -1 1 0 1 -1 2 0 1 -1 1 0 1 -1 3 0 1 -1 1 0 1 -1 1 0 1 -1 3 0 1 -1 1 0 1 -1 1 0 1 -1 3 0 1 -1 1 0 1 -1 1 0 1 -1 1 0"/>
<path stroke="#FFA500" d="M452 39l45 0"/>
<text stroke="none" fill="white" font-size="16" x="507" y="48">
v(out3)
</text>
<path stroke="#FFA500" d="M60 720l1 -1 0 -1 2 -1 1 -1 1 0 1 -1 2 0 1 -1 14 0 1 -1 41 0 1 -1 37 0 1 -1 33 0 1 -1 30 0 1 -1 27 0 1 -1 25 0 1 -1 23 0 1 -1 21 0 1 -1 21 0 1 -1 18 0 1 -1 18 0 1 -1 17 0 1 -1 16 0 1 -1 15 0 1 -1 14 0 1 -1 13 0 1 -1"/>
<path stroke="#FFA500" d="M469 697l14 0 1 -1 12 0 2 -1 11 0 1 -1 11 0 1 -1 12 0 1 -1 10 0 1 -1 10 0 2 -1 10 0 1 -1 9 0 1 -1 9 0 1 -1 9 0 1 -1 9 0 1 -1 8 0 2 -1 9 0 1 -1 8 0 1 -1 7 0 1 -1 8 0 1 -1 6 0 2 -1 8 0 1 -1 6 0 2 -1 6 0 1 -1 7 0 1 -1 6 0"/>
<path stroke="#FFA500" d="M701 675l1 -1 7 0 1 -1 6 0 1 -1 5 0 2 -1 6 0 2 -1 5 0 1 -1 6 0 1 -1 6 0 1 -1 4 0 2 -1 5 0 1 -1 6 0 1 -1 5 0 1 -1 4 0 1 -1 6 0 1 -1 5 0 1 -1 4 0 1 -1 5 0 1 -1 5 0 1 -1 4 0 1 -1 5 0 1 -1 5 0 1 -1 4 0 1 -1 4 0 1 -1 4 0"/>
<path stroke="#FFA500" d="M843 652l2 -1 3 0 1 -1 5 0 1 -1 3 0 1 -1 5 0 1 -1 3 0 1 -1 4 0 1 -1 4 0 2 -1 3 0 1 -1 3 0 2 -1 3 0 1 -1 4 0 1 -1 3 0 1 -1 4 0 1 -1 3 0 1 -1 4 0 1 -1 3 0 1 -1 4 0 1 -1 3 0 1 -1 3 0 1 -1 3 0 1 -1 4 0 1 -1 2 0 1 -1 3 0"/>
<path stroke="#FFA500" d="M948 629l2 -1 3 0 1 -1 2 0 2 -1 3 0 1 -1 2 0"/>
<path stroke="green" d="M60 39l45 0"/>
<text stroke="none" fill="white" font-size="16" x="115" y="48">
v(out4)
</text>
<path stroke="green" d="M60 720l1 -1 0 -1 2 0 1 -1 36 0 1 -1 75 0 1 -1 60 0 1 -1 49 0 2 -1 44 0 1 -1 37 0 1 -1 34 0 1 -1 31 0 1 -1 27 0 1 -1 25 0 1 -1 24 0 1 -1 21 0 2 -1 20 0 1 -1 18 0 1 -1 18 0 1 -1 17 0 2 -1 15 0 1 -1 15 0 1 -1 15 0 1 -1 14 0"/>
<path stroke="green" d="M681 698l1 -1 12 0 1 -1 13 0 1 -1 12 0 1 -1 12 0 1 -1 11 0 1 -1 11 0 1 -1 10 0 1 -1 10 0 1 -1 9 0 1 -1 11 0 1 -1 8 0 1 -1 9 0 1 -1 9 0 1 -1 8 0 1 -1 8 0 1 -1 8 0 1 -1 7 0 1 -1 8 0 1 -1 7 0 1 -1 7 0 1 -1 7 0 1 -1 7 0 1 -1"/>
<path stroke="green" d="M908 675l7 0 1 -1 5 0 2 -1 6 0 1 -1 6 0 1 -1 6 0 1 -1 6 0 1 -1 5 0 2 -1 5 0 1 -1"/>
<path stroke="#FFC0C5" d="M452 55l45 0"/>
<text stroke="none" fill="white" font-size="16" x="507" y="64">
v(out5)
</text>
<path stroke="#FFC0C5" d="M60 720l1 -1 2 0 1 -1 141 0 1 -1 102 0 1 -1 76 0 1 -1 61 0 1 -1 51 0 1 -1 44 0 1 -1 39 0 1 -1 34 0 1 -1 30 0 1 -1 27 0 2 -1 26 0 1 -1 22 0 1 -1 23 0 1 -1 20 0 2 -1 18 0 1 -1 18 0 1 -1 17 0 1 -1 16 0 1 -1 15 0 1 -1 15 0"/>
<path stroke="#FFC0C5" d="M880 699l1 -1 13 0 1 -1 14 0 1 -1 13 0 1 -1 11 0 1 -1 11 0 1 -1 12 0 1 -1 3 0"/>
<path stroke="#A52A2A" d="M60 55l45 0"/>
<text stroke="none" fill="white" font-size="16" x="115" y="64">
v(in)*0.45
</text>
<path stroke="#A52A2A" d="M60 720l1 0 0 -1 2 -1 1 0 4 -4 1 0 1 -1 2 -1 1 -1 1 0 3 -3 1 0 2 -1 2 -2 1 0 3 -3 1 0 2 -1 2 -2 1 0 3 -3 1 0 2 -1 2 -2 1 0 3 -3 2 0 3 -3 1 0 3 -3 2 0 4 -4 1 0 2 -2 2 -1 1 0 3 -3 1 0 1 -1 2 -1 1 -1 1 0 3 -3 1 0 1 -1 2 -1"/>
<path stroke="#A52A2A" d="M141 666l1 -1 1 0 3 -3 1 0 1 -1 2 -1 1 -1 1 0 3 -3 1 0 1 -1 2 -1 1 -1 1 0 4 -4 2 0 3 -3 1 0 3 -3 2 0 3 -3 1 0 3 -3 2 0 3 -3 1 0 2 -2 2 -1 1 0 3 -3 1 0 2 -2 2 -1 1 0 3 -3 1 0 2 -2 2 -1 1 -1 1 0 3 -3 1 0 2 -1 2 -2 1 0"/>
<path stroke="#A52A2A" d="M222 612l3 -3 1 0 2 -1 2 -2 1 0 3 -3 1 0 2 -1 2 -2 1 0 3 -3 2 0 3 -3 1 0 3 -3 2 0 4 -4 1 0 2 -2 2 -1 1 0 3 -3 1 0 2 -2 2 -1 1 0 3 -3 1 0 1 -1 2 -1 1 -1 1 0 3 -3 1 0 1 -1 2 -1 1 -1 1 0 3 -3 1 0 1 -1 2 -1 1 -1 1 0 4 -4"/>
<path stroke="#A52A2A" d="M304 556l2 0 3 -3 1 0 3 -3 2 0 3 -3 1 0 3 -3 2 0 3 -3 1 0 2 -2 2 -1 1 0 3 -3 1 0 2 -2 2 -1 1 0 3 -3 1 0 2 -2 2 -1 1 -1 1 0 3 -3 1 0 2 -1 2 -2 1 0 3 -3 1 0 2 -1 2 -2 1 0 3 -3 1 0 2 -1 2 -2 1 0 3 -3 1 0 2 -1 2 -2 1 0 3 -3"/>
<path stroke="#A52A2A" d="M391 498l2 0 3 -3 1 0 3 -3 2 -1 1 0 3 -3 1 0 2 -2 2 -1 1 0 3 -3 1 0 1 -1 2 -1 1 -1 1 0 3 -3 1 0 1 -1 2 -1 1 -1 1 0 3 -3 1 0 1 -1 2 -1 1 -1 1 0 3 -3 1 0 2 -1 3 -3 1 0 3 -3 2 0 3 -3 1 0 3 -3 2 0 3 -3 1 0 2 -2 2 -1 1 0"/>
<path stroke="#A52A2A" d="M472 445l3 -3 1 0 2 -2 2 -1 1 0 3 -3 1 0 2 -2 2 -1 1 0 4 -4 1 0 1 -1 2 -1 1 -1 1 0 3 -3 1 0 2 -1 2 -2 1 0 3 -3 1 0 2 -1 2 -2 1 0 3 -3 1 0 2 -1 2 -2 1 0 3 -3 2 0 3 -3 1 0 3 -3 2 -1 1 0 3 -3 1 0 2 -2 2 -1 1 0 3 -3 1 0"/>
<path stroke="#A52A2A" d="M555 389l1 -1 2 -1 1 -1 1 0 3 -3 1 0 1 -1 2 -1 1 -1 1 0 3 -3 1 0 1 -1 2 -1 1 -1 1 0 3 -3 1 0 2 -1 3 -3 1 0 3 -3 2 0 3 -3 1 0 3 -3 2 0 3 -3 1 0 3 -3 2 0 3 -3 1 0 2 -2 2 -1 1 0 3 -3 1 0 2 -2 2 -1 1 0 4 -4 1 0 1 -1 2 -1"/>
<path stroke="#A52A2A" d="M637 334l1 -1 1 0 3 -3 1 0 2 -1 2 -2 1 0 3 -3 1 0 2 -1 2 -2 1 0 3 -3 1 0 2 -1 2 -2 1 0 3 -3 2 0 3 -3 1 0 3 -3 2 0 4 -4 1 0 2 -2 2 -1 1 0 3 -3 1 0 1 -1 2 -1 1 -1 1 0 3 -3 1 0 1 -1 2 -1 1 -1 1 0 3 -3 1 0 1 -1 2 -1 1 -1"/>
<path stroke="#A52A2A" d="M716 281l1 0 3 -3 1 0 1 -1 2 -1 1 -1 1 0 4 -4 2 0 3 -3 1 0 3 -3 2 0 3 -3 1 0 3 -3 2 0 3 -3 1 0 2 -2 2 -1 1 0 3 -3 1 0 2 -2 2 -1 1 0 3 -3 1 0 2 -2 2 -1 1 -1 1 0 3 -3 1 0 2 -1 2 -2 1 0 3 -3 1 0 2 -1 2 -2 1 0 3 -3 1 0 2 -1"/>
<path stroke="#A52A2A" d="M802 224l2 -2 1 0 3 -3 2 0 3 -3 1 0 3 -3 2 0 4 -4 1 0 2 -2 2 -1 1 0 3 -3 1 0 2 -2 2 -1 1 0 3 -3 1 0 1 -1 2 -1 1 -1 1 0 3 -3 1 0 1 -1 2 -1 1 -1 1 0 3 -3 1 0 1 -1 2 -1 1 -1 1 0 4 -4 2 0 3 -3 1 0 3 -3 2 0 3 -3 1 0 3 -3"/>
<path stroke="#A52A2A" d="M887 166l2 0 3 -3 1 0 2 -2 2 -1 1 0 3 -3 1 0 2 -2 2 -1 1 0 3 -3 1 0 2 -2 2 -1 1 -1 1 0 3 -3 1 0 2 -1 2 -2 1 0 3 -3 1 0 2 -1 2 -2 1 0 3 -3 1 0 2 -1 2 -2 1 0 3 -3 1 0 2 -1 2 -2 1 0 3 -3 2 0 3 -3 1 0 2 -2"/>
</svg>
