<?xml version="1.0" standalone="yes"?>
<!DOCTYPE svg PUBLIC "-//W3C//DTD SVG 1.1//EN"
 "http://www.w3.org/Graphics/SVG/1.1/DTD/svg11.dtd">
<svg xmlns="http://www.w3.org/2000/svg" version="1.1"
  width="100%" height="100%" viewBox="0 0 1024 768"
  style="fill: none; font-family: Helvetica;
 font: Helvetica;
">

<!-- Creator: NGspice -->

<rect x="0" y="0" width="1024" height="768" fill="black" stroke="none"/>
<text stroke="none" fill="white" font-size="16" x="358" y="752">
time
</text>
<text stroke="none" fill="white" font-size="16" x="10" y="16">
tran151: 
</text>
<path stroke="white" d="M60 720l0 -670"/>
<text stroke="none" fill="white" font-size="16" x="45" y="728">
0.0
</text>
<path stroke="white" stroke-dasharray="1,2" d="M173 720l0 -670"/>
<text stroke="none" fill="white" font-size="16" x="153" y="728">
10.0
</text>
<path stroke="white" stroke-dasharray="1,2" d="M286 720l0 -670"/>
<text stroke="none" fill="white" font-size="16" x="266" y="728">
20.0
</text>
<path stroke="white" stroke-dasharray="1,2" d="M399 720l0 -670"/>
<text stroke="none" fill="white" font-size="16" x="379" y="728">
30.0
</text>
<path stroke="white" stroke-dasharray="1,2" d="M512 720l0 -670"/>
<text stroke="none" fill="white" font-size="16" x="492" y="728">
40.0
</text>
<path stroke="white" stroke-dasharray="1,2" d="M625 720l0 -670"/>
<text stroke="none" fill="white" font-size="16" x="605" y="728">
50.0
</text>
<path stroke="white" stroke-dasharray="1,2" d="M738 720l0 -670"/>
<text stroke="none" fill="white" font-size="16" x="718" y="728">
60.0
</text>
<path stroke="white" stroke-dasharray="1,2" d="M851 720l0 -670"/>
<text stroke="none" fill="white" font-size="16" x="831" y="728">
70.0
</text>
<path stroke="white" stroke-dasharray="1,2" d="M964 720l0 -670"/>
<text stroke="none" fill="white" font-size="16" x="944" y="728">
80.0
</text>
<text stroke="none" fill="white" font-size="16" x="614" y="752">
ns
</text>
<path stroke="white" d="M60 720l904 0"/>
<text stroke="none" fill="white" font-size="16" x="18" y="728">
-0.0
</text>
<path stroke="white" stroke-dasharray="1,2" d="M60 653l904 0"/>
<text stroke="none" fill="white" font-size="16" x="28" y="661">
1.0
</text>
<path stroke="white" stroke-dasharray="1,2" d="M60 586l904 0"/>
<text stroke="none" fill="white" font-size="16" x="28" y="594">
2.0
</text>
<path stroke="white" stroke-dasharray="1,2" d="M60 519l904 0"/>
<text stroke="none" fill="white" font-size="16" x="28" y="527">
3.0
</text>
<path stroke="white" stroke-dasharray="1,2" d="M60 452l904 0"/>
<text stroke="none" fill="white" font-size="16" x="28" y="460">
4.0
</text>
<path stroke="white" stroke-dasharray="1,2" d="M60 385l904 0"/>
<text stroke="none" fill="white" font-size="16" x="28" y="393">
5.0
</text>
<path stroke="white" stroke-dasharray="1,2" d="M60 318l904 0"/>
<text stroke="none" fill="white" font-size="16" x="28" y="326">
6.0
</text>
<path stroke="white" stroke-dasharray="1,2" d="M60 251l904 0"/>
<text stroke="none" fill="white" font-size="16" x="28" y="259">
7.0
</text>
<path stroke="white" stroke-dasharray="1,2" d="M60 184l904 0"/>
<text stroke="none" fill="white" font-size="16" x="28" y="192">
8.0
</text>
<path stroke="white" stroke-dasharray="1,2" d="M60 117l904 0"/>
<text stroke="none" fill="white" font-size="16" x="28" y="125">
9.0
</text>
<path stroke="white" stroke-dasharray="1,2" d="M60 50l904 0"/>
<text stroke="none" fill="white" font-size="16" x="18" y="58">
10.0
</text>
<text stroke="none" fill="white" font-size="16" x="10" y="32">
m     
</text>
<path stroke="red" d="M452 23l45 0"/>
<text stroke="none" fill="white" font-size="16" x="507" y="32">
v(out2)
</text>
<path stroke="red" d="M60 720l0 -2 1 -2 0 -4 2 -5 1 -5 1 -4 4 -12 1 -2 2 -1 2 -4 4 -4 2 -1 1 -1 1 0 1 -1 1 0 1 -1 1 0 1 -1 2 0 1 -1 2 0 1 -1 3 0 2 -1 3 0 1 -1 4 0 1 -1 4 0 1 -1 5 0 1 -1 3 0 1 -1 5 0 1 -1 4 0 1 -1 4 0 1 -1 4 0 1 -1 4 0 1 -1 4 0"/>
<path stroke="red" d="M152 657l1 -1 3 0 1 -1 5 0 1 -1 4 0 1 -1 3 0 1 -1 4 0 1 -1 3 0 1 -1 4 0 1 -1 3 0 1 -1 4 0 1 -1 3 0 1 -1 3 0 1 -1 3 0 1 -1 4 0 1 -1 2 0 1 -1 4 0 1 -1 2 0 1 -1 3 0 2 -1 2 0 1 -1 3 0 1 -1 3 0 1 -1 2 0 1 -1 4 0 1 -1 2 0 1 -1"/>
<path stroke="red" d="M250 633l2 0 2 -1 2 0 1 -1 2 0 1 -1 4 0 1 -1 2 0 1 -1 2 0 2 -1 2 0 1 -1 2 0 1 -1 3 0 1 -1 2 0 1 -1 2 0 2 -1 2 0 1 -1 1 0 1 -1 2 0 2 -1 2 0 1 -1 2 0 1 -1 3 0 1 -1 1 0 1 -1 2 0 1 -1 3 0 1 -1 1 0 1 -1 2 0 1 -1 3 0 1 -1 1 0"/>
<path stroke="red" d="M327 610l1 -1 2 0 2 -1 1 0 1 -1 2 0 1 -1 1 0 1 -1 3 0 1 -1 1 0 1 -1 2 0 1 -1 2 0 1 -1 2 0 1 -1 1 0 1 -1 3 0 1 -1 1 0 1 -1 1 0 1 -1 3 0 1 -1 1 0 1 -1 1 0 1 -1 1 0 1 -1 3 0 1 -1 1 0 1 -1 1 0 1 -1 1 0 2 -1 2 0 1 -1 1 0 1 -1"/>
<path stroke="red" d="M390 586l1 0 2 -1 1 0 1 -1 1 0 1 -1 1 0 1 -1 1 0 2 -1 2 0 1 -1 1 0 1 -1 1 0 1 -1 2 0 1 -1 1 0 1 -1 1 0 1 -1 1 0 2 -1 1 0 1 -1 1 0 1 -1 1 0 1 -1 1 0 2 -1 1 0 1 -1 1 0 1 -1 1 0 1 -1 1 0 2 -1 1 -1 1 0 1 -1 1 0 1 -1 1 0 2 -1"/>
<path stroke="red" d="M445 562l1 0 1 -1 1 0 1 -1 1 0 1 -1 1 0 2 -1 1 -1 1 0 1 -1 1 0 1 -1 1 0 1 -1 2 0 2 -2 1 0 1 -1 1 0 1 -1 2 0 2 -2 1 0 1 -1 1 0 2 -2 2 0 1 -1 1 0 1 -1 1 0 2 -2 1 0 2 -1 1 0 2 -2 1 0 1 -1 1 0 1 -1 2 -1 1 0 2 -2 1 0 1 -1 1 0"/>
<path stroke="red" d="M504 532l2 -1 1 -1 1 0 2 -2 1 0 2 -2 2 0 1 -1 1 0 2 -2 1 0 2 -2 2 0 2 -2 1 0 2 -2 1 0 2 -1 1 -1 1 0 2 -2 1 0 2 -2 2 -1 1 0 2 -2 1 0 2 -2 1 0 2 -1 2 -2 1 0 2 -2 1 0 2 -1 2 -2 1 0 2 -2 1 0 1 -1 2 -1 1 -1 1 0 3 -3 1 0 1 -1"/>
<path stroke="red" d="M574 489l2 -1 1 -1 1 0 4 -4 2 0 3 -3 1 0 3 -3 2 -1 1 0 3 -3 1 0 2 -2 2 -1 2 -2 1 0 4 -4 2 0 5 -5 1 0 2 -1 4 -4 1 0 2 -2 2 -1 4 -4 1 0 2 -2 2 -1 4 -4 1 0 1 -1 2 -1 7 -7 2 0 7 -7 2 -1 6 -6 2 -1 1 0 6 -6 2 -1 7 -7 2 -1 6 -6"/>
<path stroke="red" d="M695 395l2 -1 7 -7 2 -1 4 -4 1 -2 2 -2 2 -1 7 -7 2 -1 3 -3 1 -2 2 -2 2 -1 5 -5 1 -2 1 -1 2 -1 5 -5 1 -2 1 -1 2 -1 4 -4 1 -2 1 -1 2 -1 3 -3 1 -2 3 -3 2 -1 1 -1 1 -2 4 -4 1 -2 2 -1 2 -2 1 -2 3 -3 2 -1 1 -2 3 -3 1 -2 2 -2 2 -1"/>
<path stroke="red" d="M793 298l1 -2 3 -3 1 -2 7 -7 1 -2 6 -6 1 -2 3 -3 1 -2 2 -1 1 -1 1 -2 2 -2 1 -2 5 -5 1 -2 2 -2 1 -2 5 -5 1 -2 2 -2 1 -2 1 -1 2 -1 1 -2 1 -1 1 -2 1 -1 1 -2 5 -5 1 -2 1 -1 1 -2 2 -2 1 -2 2 -1 1 -2 1 -1 1 -2 1 -1 1 -2 5 -5 1 -2"/>
<path stroke="red" d="M874 199l1 -1 1 -2 1 -1 1 -2 2 -1 1 -2 1 -1 1 -2 1 -1 1 -2 1 -1 1 -2 3 -3 1 -2 1 -1 1 -2 1 -1 1 -2 2 -1 1 -2 1 -1 2 -4 1 -1 1 -2 4 -4 2 -4 1 -1 1 -2 1 -1 1 -2 3 -3 1 -2 1 -1 2 -4 3 -3 1 -2 1 -1 1 -2 1 -1 2 -4 3 -3 1 -2 1 -1"/>
<path stroke="red" d="M934 116l2 -4 1 -1 2 -4 2 -1 2 -4 1 -1 3 -6 3 -3 1 -2 1 -1 3 -6 3 -3 2 -4 1 -1 2 -4 1 -1"/>
<path stroke="blue" d="M60 23l45 0"/>
<text stroke="none" fill="white" font-size="16" x="115" y="32">
v(out3)
</text>
<path stroke="blue" d="M60 720l0 -2 1 -2 0 -3 2 -4 1 -4 2 -4 1 -1 1 -2 1 0 1 -1 2 -1 2 0 1 -1 5 0 1 -1 8 0 1 -1 10 0 1 -1 9 0 1 -1 9 0 1 -1 9 0 2 -1 9 0 1 -1 8 0 1 -1 8 0 1 -1 9 0 1 -1 7 0 1 -1 8 0 1 -1 7 0 1 -1 7 0 1 -1 6 0 2 -1 6 0 2 -1 6 0"/>
<path stroke="blue" d="M225 679l1 -1 6 0 1 -1 7 0 1 -1 6 0 1 -1 6 0 1 -1 5 0 1 -1 6 0 1 -1 6 0 1 -1 5 0 1 -1 5 0 1 -1 5 0 1 -1 5 0 1 -1 5 0 2 -1 4 0 1 -1 5 0 1 -1 4 0 1 -1 5 0 1 -1 5 0 1 -1 3 0 1 -1 5 0 1 -1 4 0 2 -1 3 0 1 -1 4 0 1 -1 4 0 1 -1"/>
<path stroke="blue" d="M364 655l4 0 1 -1 3 0 1 -1 5 0 1 -1 3 0 1 -1 4 0 1 -1 3 0 2 -1 3 0 1 -1 3 0 2 -1 3 0 1 -1 2 0 1 -1 4 0 1 -1 3 0 2 -1 3 0 1 -1 2 0 1 -1 4 0 1 -1 2 0 1 -1 4 0 1 -1 2 0 1 -1 4 0 1 -1 2 0 1 -1 2 0 2 -1 3 0 1 -1 2 0 1 -1 3 0"/>
<path stroke="blue" d="M464 632l1 -1 2 0 1 -1 4 0 1 -1 2 0 1 -1 2 0 2 -1 2 0 1 -1 2 0 1 -1 3 0 1 -1 2 0 1 -1 2 0 1 -1 3 0 1 -1 2 0 1 -1 3 0 1 -1 2 0 1 -1 1 0 1 -1 3 0 1 -1 2 0 1 -1 2 0 1 -1 2 0 1 -1 2 0 1 -1 2 0 2 -1 1 0 1 -1 2 0 1 -1 2 0 2 -1"/>
<path stroke="blue" d="M541 608l1 0 1 -1 2 0 1 -1 1 0 1 -1 3 0 1 -1 1 0 1 -1 2 0 2 -1 1 0 1 -1 2 0 1 -1 1 0 1 -1 3 0 1 -1 1 0 1 -1 1 0 1 -1 3 0 1 -1 1 0 1 -1 1 0 1 -1 3 0 1 -1 1 0 1 -1 1 0 1 -1 1 0 1 -1 3 0 1 -1 1 0 1 -1 1 0 1 -1 1 0 2 -1 1 0"/>
<path stroke="blue" d="M603 585l1 -1 2 0 1 -1 1 0 1 -1 2 0 1 -1 1 0 1 -1 1 0 1 -1 1 0 2 -1 1 0 1 -1 1 0 1 -1 1 0 1 -1 1 0 2 -1 1 0 1 -1 1 0 1 -1 1 0 1 -1 1 0 2 -1 1 0 1 -1 1 0 1 -1 1 0 1 -1 2 0 1 -1 1 0 1 -1 1 0 1 -1 1 0 1 -1 2 0 1 -1 1 0 1 -1"/>
<path stroke="blue" d="M657 561l1 0 2 -2 1 0 2 -1 1 0 1 -1 1 0 1 -1 1 0 1 -1 2 0 2 -2 1 0 1 -1 1 0 1 -1 1 0 2 -1 1 -1 1 0 1 -1 1 0 1 -1 1 0 1 -1 2 -1 1 0 1 -1 1 0 1 -1 1 0 1 -1 2 -1 1 0 1 -1 1 0 2 -2 1 0 1 -1 2 0 2 -2 1 0 2 -2 1 0 1 -1 2 0 2 -2"/>
<path stroke="blue" d="M717 530l1 0 2 -2 1 0 1 -1 2 0 2 -2 1 0 2 -2 1 0 2 -1 1 -1 1 0 2 -2 1 0 2 -2 2 0 2 -2 1 0 2 -2 1 0 1 -1 2 -1 1 0 2 -2 1 0 2 -2 2 -1 1 0 2 -2 1 0 2 -2 1 0 2 -1 2 -2 1 0 2 -2 1 0 1 -1 2 -1 1 -1 1 0 3 -3 1 0 2 -1 2 -2 1 0"/>
<path stroke="blue" d="M787 488l3 -3 1 0 2 -1 2 -2 1 0 4 -4 2 0 3 -3 1 0 2 -2 2 -1 1 -1 1 0 5 -5 2 0 4 -4 1 0 2 -2 2 -1 2 -2 1 0 4 -4 2 -1 1 -1 1 0 4 -4 2 -1 1 -1 1 0 5 -5 2 -1 2 -2 1 0 4 -4 2 -1 4 -4 1 0 1 -1 2 -1 7 -7 2 -1 6 -6 1 0 2 -1 6 -6"/>
<path stroke="blue" d="M895 405l2 -1 7 -7 2 -1 7 -7 2 -1 3 -3 1 -2 2 -2 2 -1 7 -7 2 -1 5 -5 1 -2 1 -1 2 -1 15 -15 2 -1 1 -2 5 -5"/>
<path stroke="#FFA500" d="M452 39l45 0"/>
<text stroke="none" fill="white" font-size="16" x="507" y="48">
v(out4)
</text>
<path stroke="#FFA500" d="M60 720l0 -2 1 -1 0 -3 2 -3 3 -3 3 0 1 -1 20 0 1 -1 20 0 1 -1 20 0 1 -1 17 0 1 -1 17 0 1 -1 16 0 1 -1 14 0 2 -1 14 0 1 -1 13 0 1 -1 14 0 1 -1 12 0 1 -1 11 0 2 -1 11 0 1 -1 10 0 1 -1 11 0 1 -1 10 0 1 -1 10 0 1 -1 9 0"/>
<path stroke="#FFA500" d="M338 690l1 -1 9 0 2 -1 8 0 1 -1 9 0 1 -1 8 0 1 -1 8 0 1 -1 7 0 1 -1 8 0 1 -1 7 0 1 -1 7 0 1 -1 6 0 2 -1 6 0 1 -1 7 0 1 -1 6 0 1 -1 6 0 1 -1 7 0 1 -1 6 0 1 -1 5 0 1 -1 6 0 1 -1 5 0 1 -1 5 0 2 -1 4 0 1 -1 6 0 1 -1 5 0"/>
<path stroke="#FFA500" d="M515 667l1 -1 4 0 1 -1 5 0 1 -1 5 0 1 -1 4 0 1 -1 5 0 1 -1 4 0 2 -1 4 0 1 -1 4 0 1 -1 4 0 1 -1 4 0 1 -1 4 0 2 -1 3 0 1 -1 4 0 1 -1 4 0 1 -1 4 0 1 -1 3 0 1 -1 4 0 1 -1 3 0 1 -1 4 0 1 -1 3 0 1 -1 4 0 1 -1 2 0 1 -1 4 0"/>
<path stroke="#FFA500" d="M629 644l1 -1 3 0 1 -1 4 0 1 -1 2 0 1 -1 4 0 1 -1 2 0 1 -1 4 0 1 -1 2 0 1 -1 3 0 2 -1 2 0 1 -1 2 0 1 -1 4 0 1 -1 2 0 1 -1 3 0 1 -1 2 0 1 -1 2 0 1 -1 4 0 1 -1 2 0 1 -1 3 0 1 -1 2 0 1 -1 2 0 2 -1 2 0 1 -1 2 0 1 -1 3 0"/>
<path stroke="#FFA500" d="M715 621l1 -1 1 0 1 -1 2 0 1 -1 3 0 1 -1 2 0 1 -1 2 0 2 -1 1 0 1 -1 2 0 1 -1 2 0 2 -1 2 0 1 -1 1 0 1 -1 2 0 2 -1 2 0 1 -1 1 0 1 -1 3 0 1 -1 1 0 1 -1 2 0 1 -1 1 0 2 -1 2 0 1 -1 1 0 1 -1 2 0 2 -1 1 0 1 -1 2 0 1 -1 1 0"/>
<path stroke="#FFA500" d="M782 598l2 -1 1 0 1 -1 2 0 1 -1 1 0 1 -1 2 0 1 -1 2 0 1 -1 1 0 1 -1 1 0 2 -1 2 0 1 -1 1 0 1 -1 1 0 2 -1 1 0 1 -1 1 0 1 -1 2 0 1 -1 2 0 1 -1 1 0 1 -1 1 0 1 -1 1 0 1 -1 2 0 1 -1 1 0 1 -1 1 0 1 -1 2 0 2 -1 1 0 1 -1 1 0"/>
<path stroke="#FFA500" d="M840 575l1 -1 1 0 1 -1 2 0 1 -1 1 0 1 -1 1 0 1 -1 1 0 1 -1 2 0 1 -1 1 0 2 -2 1 0 1 -1 1 0 2 -1 1 0 1 -1 1 0 1 -1 1 0 1 -1 2 0 1 -1 1 0 1 -1 1 0 2 -2 1 0 2 -1 1 0 1 -1 1 0 1 -1 1 0 1 -1 1 0 2 -1 1 -1 1 0 1 -1 1 0 1 -1"/>
<path stroke="#FFA500" d="M894 549l1 0 2 -1 1 -1 1 0 1 -1 1 0 1 -1 1 0 1 -1 2 -1 1 0 1 -1 1 0 2 -2 1 0 1 -1 2 0 2 -2 1 0 1 -1 1 0 1 -1 2 -1 1 0 2 -2 1 0 1 -1 1 0 1 -1 2 -1 1 0 2 -2 1 0 1 -1 1 0 1 -1 2 -1 1 0 2 -2 1 0 2 -2 1 0 2 -1 1 -1 1 0 2 -2"/>
<path stroke="#FFA500" d="M954 516l1 0 1 -1 2 -1 1 0 2 -2 1 0 2 -2"/>
<path stroke="green" d="M60 39l45 0"/>
<text stroke="none" fill="white" font-size="16" x="115" y="48">
v(out5)
</text>
<path stroke="green" d="M60 720l0 -1 1 -2 0 -2 2 -1 12 0 1 -1 1 1 1 -1 41 0 1 -1 36 0 1 -1 33 0 1 -1 30 0 1 -1 26 0 1 -1 25 0 1 -1 23 0 1 -1 20 0 1 -1 19 0 2 -1 18 0 1 -1 17 0 1 -1 17 0 1 -1 15 0 1 -1 14 0 2 -1 13 0 1 -1 13 0 1 -1 12 0 1 -1 13 0"/>
<path stroke="green" d="M482 696l1 -1 11 0 1 -1 12 0 1 -1 10 0 1 -1 10 0 1 -1 9 0 2 -1 9 0 1 -1 9 0 1 -1 9 0 1 -1 9 0 1 -1 8 0 1 -1 8 0 1 -1 7 0 1 -1 8 0 1 -1 7 0 1 -1 8 0 1 -1 7 0 1 -1 6 0 1 -1 7 0 1 -1 7 0 1 -1 5 0 2 -1 5 0 1 -1 6 0 1 -1 6 0"/>
<path stroke="green" d="M690 673l1 -1 6 0 1 -1 5 0 1 -1 5 0 1 -1 6 0 1 -1 4 0 1 -1 6 0 1 -1 5 0 1 -1 4 0 2 -1 4 0 1 -1 5 0 1 -1 4 0 2 -1 4 0 1 -1 4 0 1 -1 4 0 1 -1 5 0 1 -1 3 0 2 -1 4 0 1 -1 4 0 1 -1 3 0 1 -1 5 0 1 -1 3 0 1 -1 4 0 1 -1 3 0 1 -1"/>
<path stroke="green" d="M817 649l4 0 1 -1 3 0 1 -1 4 0 1 -1 3 0 1 -1 3 0 1 -1 3 0 1 -1 4 0 1 -1 3 0 1 -1 3 0 1 -1 3 0 1 -1 3 0 1 -1 3 0 1 -1 3 0 1 -1 3 0 1 -1 2 0 2 -1 2 0 1 -1 3 0 1 -1 3 0 1 -1 2 0 1 -1 3 0 1 -1 3 0 1 -1 2 0 2 -1 2 0 1 -1 2 0"/>
<path stroke="green" d="M911 626l1 -1 3 0 1 -1 2 0 1 -1 2 0 2 -1 2 0 1 -1 2 0 1 -1 3 0 1 -1 2 0 1 -1 1 0 1 -1 3 0 1 -1 2 0 1 -1 2 0 1 -1 3 0 1 -1 1 0 1 -1 2 0 2 -1 2 0 1 -1 1 0 1 -1 1 0"/>
<path stroke="#FFC0C5" d="M452 55l45 0"/>
<text stroke="none" fill="white" font-size="16" x="507" y="64">
v(in)/8
</text>
<path stroke="#FFC0C5" d="M60 720l1 -1 2 -1 2 -2 1 0 4 -4 2 -1 1 0 5 -5 2 0 5 -5 1 0 1 -1 2 -1 4 -4 1 0 2 -2 2 -1 2 -2 1 0 3 -3 2 -1 1 -1 1 0 5 -5 2 0 5 -5 1 0 1 -1 2 -1 3 -3 1 0 2 -2 2 -1 3 -3 1 0 3 -3 2 -1 1 -1 1 0 5 -5 2 0 5 -5 1 0 1 -1 2 -1"/>
<path stroke="#FFC0C5" d="M159 647l3 -3 1 0 2 -2 2 -1 2 -2 1 0 4 -4 2 -1 1 0 6 -6 2 0 5 -5 1 0 2 -1 4 -4 1 0 2 -2 2 -1 2 -2 1 0 4 -4 2 -1 1 0 5 -5 2 0 6 -6 1 0 2 -1 4 -4 1 0 2 -2 2 -1 2 -2 1 0 3 -3 2 -1 1 -1 1 0 5 -5 2 0 5 -5 1 0 1 -1 2 -1 3 -3"/>
<path stroke="#FFC0C5" d="M266 567l1 0 3 -3 2 -1 2 -2 1 0 3 -3 2 -1 1 -1 1 0 5 -5 2 0 5 -5 1 0 1 -1 2 -1 3 -3 1 0 2 -2 2 -1 2 -2 1 0 4 -4 2 -1 1 -1 1 0 5 -5 2 0 5 -5 1 0 2 -1 4 -4 1 0 2 -2 2 -1 2 -2 1 0 4 -4 2 -1 1 0 5 -5 2 0 6 -6 1 0 2 -1 4 -4"/>
<path stroke="#FFC0C5" d="M371 489l1 0 2 -2 2 -1 2 -2 1 0 4 -4 2 -1 1 0 5 -5 2 0 5 -5 1 0 1 -1 2 -1 4 -4 1 0 2 -2 2 -1 2 -2 1 0 3 -3 2 -1 1 -1 1 0 5 -5 2 0 5 -5 1 0 1 -1 2 -1 3 -3 1 0 2 -2 2 -1 2 -2 1 0 4 -4 2 -1 1 -1 1 0 5 -5 2 0 5 -5 1 0 2 -1"/>
<path stroke="#FFC0C5" d="M471 416l4 -4 1 0 2 -2 2 -1 2 -2 1 0 4 -4 2 -1 1 0 6 -6 2 0 5 -5 1 0 2 -1 4 -4 1 0 2 -2 2 -1 2 -2 1 0 4 -4 2 -1 1 0 5 -5 2 0 5 -5 1 0 1 -1 2 -1 4 -4 1 0 2 -2 2 -1 2 -2 1 0 3 -3 2 -1 1 -1 1 0 5 -5 2 0 5 -5 1 0 1 -1 2 -1"/>
<path stroke="#FFC0C5" d="M576 338l3 -3 1 0 2 -2 2 -1 3 -3 1 0 3 -3 2 -1 1 -1 1 0 5 -5 2 0 5 -5 1 0 1 -1 2 -1 3 -3 1 0 2 -2 2 -1 2 -2 1 0 4 -4 2 -1 1 0 6 -6 2 0 5 -5 1 0 2 -1 4 -4 1 0 2 -2 2 -1 2 -2 1 0 4 -4 2 -1 1 0 5 -5 2 0 6 -6 1 0 2 -1 4 -4"/>
<path stroke="#FFC0C5" d="M684 257l1 0 2 -2 2 -1 2 -2 1 0 3 -3 2 -1 1 -1 1 0 5 -5 2 0 5 -5 1 0 1 -1 2 -1 3 -3 1 0 3 -3 2 -1 2 -2 1 0 3 -3 2 -1 1 -1 1 0 5 -5 2 0 5 -5 1 0 1 -1 2 -1 3 -3 1 0 2 -2 2 -1 2 -2 1 0 4 -4 2 -1 1 -1 1 0 5 -5 2 0 5 -5 1 0"/>
<path stroke="#FFC0C5" d="M782 185l2 -1 4 -4 1 0 2 -2 2 -1 2 -2 1 0 4 -4 2 -1 1 0 5 -5 2 0 6 -6 1 0 2 -1 4 -4 1 0 2 -2 2 -1 2 -2 1 0 4 -4 2 -1 1 0 5 -5 2 0 5 -5 1 0 1 -1 2 -1 4 -4 1 0 2 -2 2 -1 2 -2 1 0 3 -3 2 -1 1 -1 1 0 5 -5 2 0 5 -5 1 0 1 -1"/>
<path stroke="#FFC0C5" d="M887 107l2 -1 3 -3 1 0 2 -2 2 -1 2 -2 1 0 4 -4 2 -1 1 -1 1 0 5 -5 2 0 5 -5 1 0 2 -1 4 -4 1 0 2 -2 2 -1 2 -2 1 0 4 -4 2 -1 1 0 6 -6 2 0 5 -5 1 0 2 -1 4 -4 1 0 1 -1"/>
</svg>
