<?xml version="1.0" standalone="yes"?>
<!DOCTYPE svg PUBLIC "-//W3C//DTD SVG 1.1//EN"
 "http://www.w3.org/Graphics/SVG/1.1/DTD/svg11.dtd">
<svg xmlns="http://www.w3.org/2000/svg" version="1.1"
  width="100%" height="100%" viewBox="0 0 1024 768"
  style="fill: none; font-family: Helvetica;
 font: Helvetica;
">

<!-- Creator: NGspice -->

<rect x="0" y="0" width="1024" height="768" fill="black" stroke="none"/>
<text stroke="none" fill="white" font-size="16" x="358" y="752">
time
</text>
<text stroke="none" fill="white" font-size="16" x="10" y="16">
tran151: 
</text>
<path stroke="white" d="M60 720l0 -672"/>
<text stroke="none" fill="white" font-size="16" x="45" y="728">
0.0
</text>
<path stroke="white" stroke-dasharray="1,2" d="M173 720l0 -672"/>
<text stroke="none" fill="white" font-size="16" x="153" y="728">
10.0
</text>
<path stroke="white" stroke-dasharray="1,2" d="M286 720l0 -672"/>
<text stroke="none" fill="white" font-size="16" x="266" y="728">
20.0
</text>
<path stroke="white" stroke-dasharray="1,2" d="M399 720l0 -672"/>
<text stroke="none" fill="white" font-size="16" x="379" y="728">
30.0
</text>
<path stroke="white" stroke-dasharray="1,2" d="M512 720l0 -672"/>
<text stroke="none" fill="white" font-size="16" x="492" y="728">
40.0
</text>
<path stroke="white" stroke-dasharray="1,2" d="M625 720l0 -672"/>
<text stroke="none" fill="white" font-size="16" x="605" y="728">
50.0
</text>
<path stroke="white" stroke-dasharray="1,2" d="M738 720l0 -672"/>
<text stroke="none" fill="white" font-size="16" x="718" y="728">
60.0
</text>
<path stroke="white" stroke-dasharray="1,2" d="M851 720l0 -672"/>
<text stroke="none" fill="white" font-size="16" x="831" y="728">
70.0
</text>
<path stroke="white" stroke-dasharray="1,2" d="M964 720l0 -672"/>
<text stroke="none" fill="white" font-size="16" x="944" y="728">
80.0
</text>
<text stroke="none" fill="white" font-size="16" x="614" y="752">
ns
</text>
<path stroke="white" d="M60 720l904 0"/>
<text stroke="none" fill="white" font-size="16" x="18" y="728">
-0.0
</text>
<path stroke="white" stroke-dasharray="1,2" d="M60 636l904 0"/>
<text stroke="none" fill="white" font-size="16" x="18" y="644">
10.0
</text>
<path stroke="white" stroke-dasharray="1,2" d="M60 552l904 0"/>
<text stroke="none" fill="white" font-size="16" x="18" y="560">
20.0
</text>
<path stroke="white" stroke-dasharray="1,2" d="M60 468l904 0"/>
<text stroke="none" fill="white" font-size="16" x="18" y="476">
30.0
</text>
<path stroke="white" stroke-dasharray="1,2" d="M60 384l904 0"/>
<text stroke="none" fill="white" font-size="16" x="18" y="392">
40.0
</text>
<path stroke="white" stroke-dasharray="1,2" d="M60 300l904 0"/>
<text stroke="none" fill="white" font-size="16" x="18" y="308">
50.0
</text>
<path stroke="white" stroke-dasharray="1,2" d="M60 216l904 0"/>
<text stroke="none" fill="white" font-size="16" x="18" y="224">
60.0
</text>
<path stroke="white" stroke-dasharray="1,2" d="M60 132l904 0"/>
<text stroke="none" fill="white" font-size="16" x="18" y="140">
70.0
</text>
<path stroke="white" stroke-dasharray="1,2" d="M60 48l904 0"/>
<text stroke="none" fill="white" font-size="16" x="18" y="56">
80.0
</text>
<text stroke="none" fill="white" font-size="16" x="10" y="32">
mV
</text>
<path stroke="red" d="M452 23l45 0"/>
<text stroke="none" fill="white" font-size="16" x="507" y="32">
v(out1)
</text>
<path stroke="red" d="M60 720l1 -1 2 -1 1 -1 1 0 4 -4 1 0 2 -1 2 -2 1 0 2 -2 1 0 2 -1 1 -1 1 0 2 -2 1 0 1 -1 1 0 2 -1 1 -1 1 0 1 -1 1 0 2 -2 1 0 2 -1 1 0 1 -1 1 0 1 -1 1 0 1 -1 2 0 1 -1 1 0 1 -1 1 0 1 -1 1 0 1 -1 2 0 1 -1 1 0 1 -1 1 0 1 -1 1 0"/>
<path stroke="red" d="M121 687l1 -1 3 0 1 -1 1 0 1 -1 2 0 2 -1 1 0 1 -1 2 0 1 -1 1 0 1 -1 3 0 1 -1 2 0 1 -1 1 0 1 -1 3 0 1 -1 2 0 1 -1 2 0 2 -1 2 0 1 -1 2 0 1 -1 3 0 1 -1 2 0 1 -1 4 0 1 -1 2 0 1 -1 2 0 1 -1 4 0 1 -1 2 0 1 -1 4 0 1 -1 3 0 1 -1"/>
<path stroke="red" d="M200 663l3 0 1 -1 3 0 1 -1 4 0 1 -1 3 0 1 -1 3 0 1 -1 3 0 1 -1 4 0 1 -1 3 0 1 -1 4 0 1 -1 3 0 1 -1 4 0 1 -1 3 0 1 -1 4 0 1 -1 3 0 1 -1 4 0 1 -1 4 0 2 -1 3 0 1 -1 4 0 1 -1 3 0 1 -1 4 0 1 -1 3 0 1 -1 4 0 1 -1 3 0 1 -1 4 0"/>
<path stroke="red" d="M307 640l1 -1 3 0 1 -1 4 0 1 -1 3 0 1 -1 4 0 1 -1 3 0 1 -1 4 0 1 -1 3 0 1 -1 4 0 1 -1 3 0 1 -1 4 0 1 -1 3 0 2 -1 3 0 1 -1 2 0 1 -1 4 0 1 -1 3 0 1 -1 4 0 1 -1 3 0 1 -1 3 0 1 -1 3 0 1 -1 4 0 1 -1 2 0 1 -1 4 0 1 -1 3 0 1 -1"/>
<path stroke="red" d="M408 616l3 0 1 -1 3 0 1 -1 3 0 1 -1 3 0 1 -1 2 0 2 -1 3 0 1 -1 2 0 1 -1 4 0 1 -1 2 0 1 -1 4 0 1 -1 2 0 1 -1 4 0 1 -1 2 0 1 -1 2 0 2 -1 3 0 1 -1 2 0 2 -1 2 0 1 -1 3 0 1 -1 3 0 1 -1 2 0 1 -1 2 0 2 -1 3 0 1 -1 2 0 1 -1 3 0"/>
<path stroke="red" d="M499 593l1 -1 2 0 1 -1 3 0 1 -1 3 0 1 -1 2 0 2 -1 2 0 1 -1 2 0 1 -1 3 0 1 -1 2 0 1 -1 2 0 2 -1 2 0 1 -1 2 0 1 -1 3 0 1 -1 2 0 1 -1 2 0 1 -1 3 0 1 -1 2 0 1 -1 3 0 1 -1 2 0 1 -1 2 0 1 -1 3 0 1 -1 2 0 1 -1 2 0 2 -1 2 0 1 -1"/>
<path stroke="red" d="M579 569l2 0 1 -1 2 0 1 -1 2 0 1 -1 2 0 1 -1 3 0 1 -1 2 0 1 -1 2 0 2 -1 1 0 1 -1 2 0 1 -1 2 0 2 -1 2 0 1 -1 2 0 1 -1 2 0 1 -1 2 0 1 -1 2 0 1 -1 3 0 1 -1 1 0 1 -1 2 0 1 -1 3 0 1 -1 1 0 1 -1 2 0 2 -1 2 0 1 -1 1 0 1 -1 2 0"/>
<path stroke="red" d="M652 546l2 -1 2 0 1 -1 1 0 1 -1 2 0 2 -1 2 0 1 -1 1 0 1 -1 3 0 1 -1 1 0 1 -1 2 0 1 -1 3 0 1 -1 1 0 1 -1 2 0 1 -1 1 0 2 -1 2 0 1 -1 1 0 1 -1 3 0 1 -1 2 0 1 -1 1 0 1 -1 3 0 1 -1 1 0 1 -1 2 0 1 -1 1 0 2 -1 2 0 1 -1 1 0 1 -1"/>
<path stroke="red" d="M720 522l2 0 2 -1 1 0 1 -1 1 0 1 -1 2 0 2 -1 1 0 1 -1 2 0 1 -1 1 0 1 -1 3 0 1 -1 1 0 1 -1 2 0 1 -1 2 0 1 -1 1 0 1 -1 2 0 1 -1 2 0 1 -1 2 0 1 -1 1 0 1 -1 1 0 2 -1 2 0 1 -1 1 0 1 -1 2 0 2 -1 1 0 1 -1 1 0 1 -1 2 0 2 -1 1 0"/>
<path stroke="red" d="M785 499l1 -1 1 0 1 -1 2 0 1 -1 2 0 1 -1 1 0 1 -1 2 0 1 -1 1 0 2 -1 1 0 1 -1 2 0 1 -1 1 0 2 -1 1 0 1 -1 1 0 1 -1 2 0 1 -1 2 0 1 -1 1 0 1 -1 2 0 1 -1 1 0 2 -1 1 0 1 -1 1 0 1 -1 2 0 1 -1 2 0 1 -1 1 0 1 -1 1 0 1 -1 3 0 1 -1"/>
<path stroke="red" d="M846 475l1 0 1 -1 1 0 1 -1 1 0 1 -1 3 0 1 -1 1 0 1 -1 1 0 1 -1 1 0 2 -1 1 0 1 -1 2 0 1 -1 1 0 2 -1 1 0 1 -1 1 0 1 -1 1 0 1 -1 3 0 1 -1 1 0 1 -1 1 0 1 -1 1 0 1 -1 2 0 1 -1 1 0 1 -1 2 0 1 -1 2 0 1 -1 1 0 1 -1 1 0 1 -1 1 0"/>
<path stroke="red" d="M903 452l1 -1 2 0 1 -1 1 0 1 -1 2 0 1 -1 1 0 2 -1 1 0 1 -1 1 0 1 -1 1 0 1 -1 2 0 1 -1 1 0 1 -1 1 0 1 -1 2 0 2 -1 1 0 1 -1 1 0 1 -1 1 0 1 -1 1 0 2 -1 1 0 1 -1 1 0 1 -1 1 0 1 -1 1 0 2 -1 1 0 1 -1 1 0 1 -1 1 0 1 -1 3 0 1 -1"/>
<path stroke="red" d="M960 428l1 0 1 -1 1 0 1 -1"/>
<path stroke="blue" d="M60 23l45 0"/>
<text stroke="none" fill="white" font-size="16" x="115" y="32">
v(out2)
</text>
<path stroke="blue" d="M60 720l1 -1 2 -1 1 0 1 -1 1 0 1 -1 3 0 2 -1 4 0 1 -1 17 0 1 -1 39 0 1 -1 37 0 1 -1 34 0 1 -1 31 0 1 -1 27 0 1 -1 26 0 1 -1 24 0 1 -1 22 0 1 -1 21 0 1 -1 20 0 1 -1 18 0 1 -1 17 0 1 -1 16 0 1 -1 16 0 1 -1 15 0 1 -1 14 0"/>
<path stroke="blue" d="M487 698l2 -1 13 0 1 -1 13 0 1 -1 12 0 1 -1 13 0 1 -1 11 0 1 -1 12 0 1 -1 11 0 1 -1 10 0 2 -1 10 0 1 -1 10 0 1 -1 9 0 1 -1 10 0 2 -1 9 0 1 -1 8 0 1 -1 9 0 1 -1 8 0 1 -1 8 0 1 -1 8 0 1 -1 8 0 1 -1 8 0 1 -1 8 0 1 -1 7 0 1 -1"/>
<path stroke="blue" d="M728 675l7 0 1 -1 7 0 1 -1 7 0 1 -1 7 0 1 -1 7 0 1 -1 6 0 2 -1 5 0 1 -1 7 0 1 -1 6 0 1 -1 6 0 1 -1 6 0 1 -1 5 0 1 -1 6 0 1 -1 6 0 1 -1 6 0 1 -1 5 0 2 -1 5 0 1 -1 5 0 1 -1 6 0 1 -1 4 0 1 -1 5 0 1 -1 6 0 1 -1 4 0 1 -1 5 0"/>
<path stroke="blue" d="M892 652l1 -1 5 0 1 -1 5 0 2 -1 4 0 1 -1 5 0 1 -1 3 0 1 -1 5 0 1 -1 5 0 1 -1 4 0 1 -1 5 0 1 -1 3 0 1 -1 5 0 1 -1 5 0 1 -1 4 0"/>
<path stroke="#FFA500" d="M452 39l45 0"/>
<text stroke="none" fill="white" font-size="16" x="507" y="48">
v(out3)
</text>
<path stroke="#FFA500" d="M60 720l1 0 0 -1 2 0 1 -1 2 0 1 -1 37 0 2 -1 74 0 1 -1 61 0 1 -1 51 0 1 -1 44 0 2 -1 38 0 1 -1 34 0 1 -1 32 0 1 -1 28 0 1 -1 25 0 1 -1 25 0 1 -1 22 0 1 -1 21 0 1 -1 20 0 1 -1 18 0 1 -1 18 0 1 -1 16 0 1 -1 16 0 1 -1 15 0"/>
<path stroke="#FFA500" d="M682 699l1 -1 15 0 1 -1 13 0 1 -1 14 0 1 -1 13 0 1 -1 11 0 1 -1 13 0 1 -1 11 0 1 -1 10 0 1 -1 12 0 1 -1 10 0 1 -1 9 0 1 -1 10 0 2 -1 9 0 1 -1 9 0 1 -1 9 0 1 -1 9 0 1 -1 8 0 1 -1 8 0 1 -1 8 0 1 -1 8 0 1 -1 8 0 2 -1 6 0"/>
<path stroke="#FFA500" d="M929 677l1 -1 8 0 1 -1 7 0 1 -1 7 0 1 -1 7 0 1 -1 1 0"/>
<path stroke="green" d="M60 39l45 0"/>
<text stroke="none" fill="white" font-size="16" x="115" y="48">
v(out4)
</text>
<path stroke="green" d="M60 720l1 0 0 -1 5 0 1 -1 140 0 1 -1 103 0 1 -1 77 0 1 -1 62 0 2 -1 50 0 2 -1 44 0 1 -1 39 0 1 -1 34 0 1 -1 32 0 1 -1 28 0 2 -1 26 0 1 -1 23 0 2 -1 22 0 1 -1 22 0 1 -1 19 0 1 -1 18 0 1 -1 19 0 1 -1 15 0 2 -1 15 0 2 -1"/>
<path stroke="green" d="M880 699l15 0 2 -1 13 0 1 -1 14 0 1 -1 13 0 2 -1 12 0 1 -1 10 0"/>
<path stroke="#FFC0C5" d="M452 55l45 0"/>
<text stroke="none" fill="white" font-size="16" x="507" y="64">
v(out5)
</text>
<path stroke="#FFC0C5" d="M60 720l1 0 0 -1 199 0 1 -1 156 0 2 -1 103 0 2 -1 78 0 1 -1 62 0 1 -1 52 0 1 -1 44 0 1 -1 40 0 1 -1 35 0 1 -1 31 0 1 -1 28 0 1 -1 26 0 1 -1 25 0 1 -1 9 0"/>
<path stroke="#A52A2A" d="M60 55l45 0"/>
<text stroke="none" fill="white" font-size="16" x="115" y="64">
v(in)
</text>
<path stroke="#A52A2A" d="M60 720l1 -1 2 -1 2 -2 1 0 4 -4 2 -1 1 0 5 -5 2 -1 1 0 5 -5 1 0 2 -1 4 -4 1 0 2 -2 2 -1 2 -2 1 0 3 -3 2 -1 2 -2 1 0 4 -4 2 -1 1 0 5 -5 1 0 2 -1 4 -4 1 0 1 -1 2 -1 4 -4 1 0 2 -2 2 -1 2 -2 1 0 4 -4 2 -1 1 0 5 -5 1 0 2 -1"/>
<path stroke="#A52A2A" d="M159 647l5 -5 1 0 2 -1 4 -4 1 0 2 -2 2 -1 2 -2 1 0 4 -4 2 -1 1 0 5 -5 2 -1 1 0 5 -5 1 0 2 -1 4 -4 1 0 2 -2 2 -1 2 -2 1 0 3 -3 2 -1 2 -2 1 0 4 -4 2 -1 1 0 5 -5 1 0 2 -1 4 -4 1 0 1 -1 2 -1 4 -4 1 0 2 -2 2 -1 2 -2 1 0 4 -4"/>
<path stroke="#A52A2A" d="M261 570l2 -1 1 0 5 -5 1 0 2 -1 5 -5 1 0 2 -1 4 -4 1 0 2 -2 2 -1 2 -2 1 0 4 -4 2 -1 1 0 5 -5 2 -1 1 0 5 -5 1 0 2 -1 4 -4 1 0 2 -2 2 -1 2 -2 1 0 3 -3 2 -1 2 -2 1 0 4 -4 2 -1 1 0 5 -5 1 0 2 -1 4 -4 1 0 1 -1 2 -1 4 -4 1 0"/>
<path stroke="#A52A2A" d="M363 495l2 -2 2 -1 2 -2 1 0 4 -4 2 -1 1 0 5 -5 1 0 2 -1 5 -5 1 0 2 -1 4 -4 1 0 2 -2 2 -1 2 -2 1 0 4 -4 2 -1 1 0 5 -5 2 -1 1 0 5 -5 1 0 2 -1 4 -4 1 0 2 -2 2 -1 2 -2 1 0 3 -3 2 -1 2 -2 1 0 4 -4 2 -1 1 0 5 -5 1 0 2 -1 4 -4"/>
<path stroke="#A52A2A" d="M467 417l1 0 1 -1 2 -1 4 -4 1 0 2 -2 2 -1 2 -2 1 0 4 -4 2 -1 1 0 5 -5 1 0 2 -1 5 -5 1 0 2 -1 4 -4 1 0 2 -2 2 -1 2 -2 1 0 4 -4 2 -1 1 0 5 -5 2 -1 1 0 5 -5 1 0 2 -1 4 -4 1 0 2 -2 2 -1 2 -2 1 0 3 -3 2 -1 2 -2 1 0 4 -4 2 -1"/>
<path stroke="#A52A2A" d="M567 343l1 0 5 -5 1 0 2 -1 4 -4 1 0 1 -1 2 -1 4 -4 1 0 2 -2 2 -1 2 -2 1 0 4 -4 2 -1 1 0 5 -5 1 0 2 -1 5 -5 1 0 2 -1 4 -4 1 0 2 -2 2 -1 2 -2 1 0 4 -4 2 -1 1 0 5 -5 2 -1 1 0 5 -5 1 0 2 -1 4 -4 1 0 2 -2 2 -1 2 -2 1 0 3 -3"/>
<path stroke="#A52A2A" d="M669 267l2 -1 2 -2 1 0 4 -4 2 -1 1 0 5 -5 1 0 2 -1 4 -4 1 0 1 -1 2 -1 4 -4 1 0 2 -2 2 -1 2 -2 1 0 4 -4 2 -1 1 0 5 -5 1 0 2 -1 5 -5 1 0 2 -1 4 -4 1 0 2 -2 2 -1 2 -2 1 0 4 -4 2 -1 1 0 5 -5 2 -1 1 0 5 -5 1 0 2 -1 4 -4 1 0"/>
<path stroke="#A52A2A" d="M772 191l2 -2 2 -1 2 -2 1 0 3 -3 2 -1 2 -2 1 0 4 -4 2 -1 1 0 5 -5 1 0 2 -1 4 -4 1 0 1 -1 2 -1 4 -4 1 0 2 -2 2 -1 2 -2 1 0 4 -4 2 -1 1 0 5 -5 1 0 2 -1 5 -5 1 0 2 -1 4 -4 1 0 2 -2 2 -1 2 -2 1 0 4 -4 2 -1 1 0 5 -5 2 -1"/>
<path stroke="#A52A2A" d="M871 117l1 0 5 -5 1 0 2 -1 4 -4 1 0 2 -2 2 -1 2 -2 1 0 3 -3 2 -1 2 -2 1 0 4 -4 2 -1 1 0 5 -5 1 0 2 -1 4 -4 1 0 1 -1 2 -1 4 -4 1 0 2 -2 2 -1 2 -2 1 0 4 -4 2 -1 1 0 5 -5 1 0 2 -1 5 -5 1 0 2 -1 4 -4 1 0 1 -1"/>
</svg>
