<?xml version="1.0" standalone="yes"?>
<!DOCTYPE svg PUBLIC "-//W3C//DTD SVG 1.1//EN"
 "http://www.w3.org/Graphics/SVG/1.1/DTD/svg11.dtd">
<svg xmlns="http://www.w3.org/2000/svg" version="1.1"
  width="100%" height="100%" viewBox="0 0 1024 768"
  style="fill: none; font-family: Helvetica;
 font: Helvetica;
">

<!-- Creator: NGspice -->

<rect x="0" y="0" width="1024" height="768" fill="black" stroke="none"/>
<text stroke="none" fill="white" font-size="16" x="358" y="752">
time
</text>
<text stroke="none" fill="white" font-size="16" x="10" y="16">
tran151: 
</text>
<path stroke="white" d="M60 720l0 -672"/>
<text stroke="none" fill="white" font-size="16" x="45" y="728">
0.0
</text>
<path stroke="white" stroke-dasharray="1,2" d="M173 720l0 -672"/>
<text stroke="none" fill="white" font-size="16" x="153" y="728">
10.0
</text>
<path stroke="white" stroke-dasharray="1,2" d="M286 720l0 -672"/>
<text stroke="none" fill="white" font-size="16" x="266" y="728">
20.0
</text>
<path stroke="white" stroke-dasharray="1,2" d="M399 720l0 -672"/>
<text stroke="none" fill="white" font-size="16" x="379" y="728">
30.0
</text>
<path stroke="white" stroke-dasharray="1,2" d="M512 720l0 -672"/>
<text stroke="none" fill="white" font-size="16" x="492" y="728">
40.0
</text>
<path stroke="white" stroke-dasharray="1,2" d="M625 720l0 -672"/>
<text stroke="none" fill="white" font-size="16" x="605" y="728">
50.0
</text>
<path stroke="white" stroke-dasharray="1,2" d="M738 720l0 -672"/>
<text stroke="none" fill="white" font-size="16" x="718" y="728">
60.0
</text>
<path stroke="white" stroke-dasharray="1,2" d="M851 720l0 -672"/>
<text stroke="none" fill="white" font-size="16" x="831" y="728">
70.0
</text>
<path stroke="white" stroke-dasharray="1,2" d="M964 720l0 -672"/>
<text stroke="none" fill="white" font-size="16" x="944" y="728">
80.0
</text>
<text stroke="none" fill="white" font-size="16" x="614" y="752">
ns
</text>
<path stroke="white" d="M60 720l904 0"/>
<text stroke="none" fill="white" font-size="16" x="18" y="728">
-0.0
</text>
<path stroke="white" stroke-dasharray="1,2" d="M60 636l904 0"/>
<text stroke="none" fill="white" font-size="16" x="18" y="644">
10.0
</text>
<path stroke="white" stroke-dasharray="1,2" d="M60 552l904 0"/>
<text stroke="none" fill="white" font-size="16" x="18" y="560">
20.0
</text>
<path stroke="white" stroke-dasharray="1,2" d="M60 468l904 0"/>
<text stroke="none" fill="white" font-size="16" x="18" y="476">
30.0
</text>
<path stroke="white" stroke-dasharray="1,2" d="M60 384l904 0"/>
<text stroke="none" fill="white" font-size="16" x="18" y="392">
40.0
</text>
<path stroke="white" stroke-dasharray="1,2" d="M60 300l904 0"/>
<text stroke="none" fill="white" font-size="16" x="18" y="308">
50.0
</text>
<path stroke="white" stroke-dasharray="1,2" d="M60 216l904 0"/>
<text stroke="none" fill="white" font-size="16" x="18" y="224">
60.0
</text>
<path stroke="white" stroke-dasharray="1,2" d="M60 132l904 0"/>
<text stroke="none" fill="white" font-size="16" x="18" y="140">
70.0
</text>
<path stroke="white" stroke-dasharray="1,2" d="M60 48l904 0"/>
<text stroke="none" fill="white" font-size="16" x="18" y="56">
80.0
</text>
<text stroke="none" fill="white" font-size="16" x="10" y="32">
m     
</text>
<path stroke="red" d="M452 23l45 0"/>
<text stroke="none" fill="white" font-size="16" x="507" y="32">
v(in)-v(out1)
</text>
<path stroke="red" d="M60 720l10 0 2 -1 6 0 2 -1 5 0 1 -1 4 0 1 -1 3 0 1 -1 3 0 1 -1 3 0 1 -1 3 0 1 -1 2 0 1 -1 2 0 1 -1 2 0 1 -1 2 0 1 -1 1 0 1 -1 3 0 1 -1 1 0 1 -1 2 0 1 -1 2 0 1 -1 1 0 1 -1 1 0 1 -1 2 0 2 -1 1 0 1 -1 1 0 1 -1 1 0 1 -1 1 0"/>
<path stroke="red" d="M148 697l2 -1 1 0 1 -1 1 0 1 -1 1 0 1 -1 1 0 2 -1 1 0 1 -1 1 0 1 -1 1 0 1 -1 2 0 1 -1 1 0 1 -1 1 0 1 -1 1 0 1 -1 2 0 2 -2 1 0 1 -1 1 0 1 -1 1 0 2 -1 1 0 1 -1 1 0 2 -2 1 0 2 -1 1 0 1 -1 1 0 2 -2 1 0 1 -1 2 0 1 -1 1 0 1 -1"/>
<path stroke="red" d="M205 670l1 0 2 -2 1 0 2 -1 1 0 2 -2 1 0 1 -1 1 0 2 -1 1 0 2 -2 1 0 1 -1 1 0 1 -1 2 0 2 -2 1 0 1 -1 1 0 2 -2 2 0 1 -1 1 0 2 -2 1 0 1 -1 2 0 2 -2 1 0 1 -1 1 0 1 -1 1 0 2 -1 1 -1 1 0 1 -1 1 0 2 -2 1 0 2 -1 1 0 2 -2 1 0 1 -1"/>
<path stroke="red" d="M268 637l1 0 1 -1 2 -1 1 0 1 -1 1 0 2 -2 1 0 2 -1 1 0 2 -2 1 0 1 -1 1 0 1 -1 2 -1 1 0 1 -1 1 0 1 -1 1 0 2 -2 2 0 1 -1 1 0 2 -2 1 0 1 -1 2 0 2 -2 1 0 1 -1 1 0 2 -2 2 0 1 -1 1 0 2 -2 1 0 1 -1 1 0 2 -1 1 0 2 -2 1 0 1 -1 1 0"/>
<path stroke="red" d="M330 605l2 -1 1 -1 1 0 1 -1 1 0 2 -2 1 0 2 -1 1 0 1 -1 1 0 2 -2 1 0 1 -1 2 0 2 -2 1 0 1 -1 1 0 1 -1 2 0 2 -2 1 0 1 -1 1 0 2 -2 2 0 1 -1 1 0 1 -1 1 0 2 -2 1 0 2 -1 1 0 1 -1 1 0 2 -2 1 0 1 -1 2 0 1 -1 1 0 2 -2 1 0 1 -1 2 0"/>
<path stroke="red" d="M393 573l1 -1 1 0 2 -2 1 0 1 -1 1 0 2 -1 1 0 2 -2 1 0 1 -1 1 0 1 -1 2 0 1 -1 1 0 2 -2 1 0 1 -1 2 0 1 -1 1 0 1 -1 1 0 2 -2 1 0 2 -1 1 0 1 -1 1 0 1 -1 1 0 2 -2 2 0 1 -1 1 0 1 -1 1 0 1 -1 1 0 2 -1 1 -1 1 0 1 -1 1 0 1 -1 1 0"/>
<path stroke="red" d="M451 544l1 -1 2 0 1 -1 1 0 2 -2 1 0 1 -1 1 0 2 -1 1 0 1 -1 1 0 1 -1 1 0 1 -1 2 -1 1 0 1 -1 1 0 1 -1 1 0 1 -1 1 0 2 -1 1 0 1 -1 1 0 1 -1 1 0 2 -2 2 0 1 -1 1 0 1 -1 1 0 1 -1 1 0 1 -1 2 0 1 -1 1 0 1 -1 1 0 1 -1 1 0 2 -1 1 0"/>
<path stroke="red" d="M507 518l2 -2 1 0 1 -1 1 0 1 -1 2 0 1 -1 1 0 1 -1 1 0 1 -1 1 0 1 -1 2 0 1 -1 1 0 1 -1 1 0 1 -1 1 0 2 -1 1 0 1 -1 1 0 1 -1 1 0 1 -1 1 0 2 -1 1 0 1 -1 1 0 2 -2 1 0 1 -1 2 0 1 -1 1 0 1 -1 1 0 1 -1 1 0 2 -1 1 0 1 -1 1 0 1 -1"/>
<path stroke="red" d="M562 492l1 0 1 -1 1 0 2 -1 1 0 1 -1 1 0 1 -1 1 0 1 -1 1 0 2 -1 1 0 1 -1 1 0 1 -1 2 0 2 -1 1 0 1 -1 1 0 1 -1 1 0 1 -1 1 0 2 -1 1 0 1 -1 1 0 1 -1 1 0 1 -1 1 0 2 -1 1 0 1 -1 1 0 1 -1 1 0 1 -1 1 0 2 -1 1 0 1 -1 1 0 1 -1 1 0"/>
<path stroke="red" d="M616 469l1 -1 3 0 1 -1 1 0 1 -1 1 0 1 -1 1 0 2 -1 1 0 1 -1 1 0 1 -1 1 0 1 -1 1 0 2 -1 1 0 1 -1 2 0 1 -1 1 0 2 -1 1 0 1 -1 1 0 1 -1 1 0 1 -1 1 0 2 -1 2 0 1 -1 1 0 1 -1 1 0 1 -1 2 0 1 -1 1 0 1 -1 1 0 1 -1 3 0 1 -1 1 0 1 -1"/>
<path stroke="red" d="M674 445l1 0 1 -1 1 0 1 -1 2 0 1 -1 2 0 1 -1 1 0 1 -1 1 0 2 -1 1 0 1 -1 1 0 1 -1 2 0 2 -1 1 0 1 -1 1 0 1 -1 1 0 1 -1 3 0 1 -1 1 0 1 -1 1 0 1 -1 2 0 2 -1 1 0 1 -1 1 0 1 -1 1 0 1 -1 3 0 1 -1 1 0 1 -1 1 0 1 -1 3 0 1 -1 1 0"/>
<path stroke="red" d="M734 422l1 -1 1 0 1 -1 2 0 2 -1 1 0 1 -1 1 0 1 -1 2 0 1 -1 2 0 1 -1 1 0 1 -1 2 0 1 -1 2 0 1 -1 1 0 1 -1 2 0 1 -1 1 0 2 -1 1 0 1 -1 2 0 1 -1 1 0 1 -1 3 0 1 -1 1 0 1 -1 1 0 1 -1 3 0 1 -1 1 0 1 -1 2 0 1 -1 2 0 1 -1 2 0 1 -1"/>
<path stroke="red" d="M797 398l1 0 1 -1 1 0 2 -1 2 0 1 -1 1 0 1 -1 3 0 1 -1 1 0 1 -1 2 0 1 -1 1 0 2 -1 2 0 1 -1 1 0 1 -1 2 0 2 -1 1 0 1 -1 2 0 1 -1 1 0 1 -1 3 0 1 -1 1 0 1 -1 2 0 2 -1 1 0 1 -1 2 0 1 -1 2 0 2 -1 1 0 1 -1 2 0 1 -1 1 0 1 -1 3 0"/>
<path stroke="red" d="M864 375l1 -1 1 0 1 -1 2 0 2 -1 2 0 1 -1 1 0 1 -1 2 0 2 -1 1 0 1 -1 2 0 1 -1 2 0 2 -1 1 0 1 -1 2 0 1 -1 3 0 1 -1 1 0 1 -1 2 0 1 -1 3 0 1 -1 1 0 1 -1 2 0 1 -1 3 0 1 -1 2 0 1 -1 1 0 1 -1 3 0 1 -1 2 0 1 -1 1 0 1 -1 3 0 1 -1"/>
<path stroke="red" d="M934 351l2 0 1 -1 2 0 2 -1 1 0 1 -1 2 0 1 -1 2 0 2 -1 2 0 1 -1 2 0 1 -1 2 0 1 -1 2 0 1 -1 2 0"/>
<path stroke="blue" d="M60 23l45 0"/>
<text stroke="none" fill="white" font-size="16" x="115" y="32">
v(in)-v(out2)
</text>
<path stroke="blue" d="M60 720l3 0 1 -1 2 0 1 -1 1 0 1 -1 1 0 2 -1 1 -1 1 0 2 -2 1 0 1 -1 2 -1 1 -1 1 0 3 -3 1 0 1 -1 2 -1 2 -2 1 0 4 -4 2 0 4 -4 1 0 1 -1 2 -1 2 -2 1 0 4 -4 2 -1 1 0 4 -4 1 0 1 -1 2 -1 2 -2 1 0 3 -3 2 -1 1 -1 1 0 4 -4 1 0 2 -1"/>
<path stroke="blue" d="M141 668l3 -3 1 0 3 -3 2 -1 1 -1 1 0 4 -4 1 0 2 -1 3 -3 1 0 2 -2 2 -1 1 -1 1 0 5 -5 2 0 4 -4 1 0 2 -2 2 -1 1 -1 1 0 4 -4 2 0 5 -5 1 0 1 -1 2 -1 2 -2 1 0 4 -4 2 0 4 -4 1 0 1 -1 2 -1 2 -2 1 0 4 -4 2 0 4 -4 1 0 2 -2 2 -1 1 -1"/>
<path stroke="blue" d="M238 598l1 0 4 -4 2 0 4 -4 1 0 2 -2 2 -1 1 -1 1 0 4 -4 1 0 2 -1 3 -3 1 0 3 -3 2 -1 1 0 4 -4 1 0 2 -1 3 -3 1 0 3 -3 2 -1 1 0 4 -4 1 0 1 -1 2 -1 2 -2 1 0 3 -3 2 -1 1 0 4 -4 1 0 1 -1 2 -1 2 -2 1 0 3 -3 1 0 2 -1 3 -3 1 0 2 -2"/>
<path stroke="blue" d="M330 533l2 -1 1 -1 1 0 4 -4 1 0 2 -1 3 -3 1 0 3 -3 2 0 4 -4 1 0 1 -1 2 -1 2 -2 1 0 3 -3 1 0 2 -1 3 -3 1 0 3 -3 2 -1 1 0 3 -3 1 0 2 -2 2 -1 1 -1 1 0 4 -4 2 0 3 -3 1 0 3 -3 2 -1 1 0 3 -3 1 0 2 -2 2 -1 1 -1 1 0 3 -3 1 0 2 -1"/>
<path stroke="blue" d="M419 472l3 -3 1 0 3 -3 2 0 4 -4 1 0 2 -2 2 -1 1 0 4 -4 1 0 2 -1 2 -2 1 0 3 -3 1 0 2 -1 3 -3 1 0 3 -3 2 0 3 -3 1 0 2 -2 2 -1 1 -1 1 0 3 -3 1 0 1 -1 2 -1 1 -1 1 0 4 -4 1 0 2 -1 2 -2 1 0 3 -3 1 0 2 -1 2 -2 1 0 3 -3 2 0 4 -4"/>
<path stroke="blue" d="M510 409l1 0 2 -2 2 -1 1 0 3 -3 1 0 2 -2 2 -1 1 0 3 -3 1 0 1 -1 2 -1 1 -1 1 0 3 -3 1 0 1 -1 2 -1 1 -1 1 0 3 -3 1 0 1 -1 2 -1 1 -1 1 0 3 -3 1 0 2 -1 2 -2 1 0 3 -3 1 0 2 -1 2 -2 1 0 3 -3 1 0 2 -1 2 -2 1 0 3 -3 2 0 3 -3 1 0"/>
<path stroke="blue" d="M588 358l3 -3 2 0 3 -3 1 0 3 -3 2 0 2 -2 1 0 3 -3 1 0 2 -1 2 -2 1 0 3 -3 2 0 3 -3 1 0 2 -2 1 0 2 -1 2 -2 1 0 3 -3 1 0 2 -1 1 -1 1 0 3 -3 1 0 2 -1 2 -2 1 0 2 -2 1 0 1 -1 2 -1 1 -1 1 0 3 -3 1 0 1 -1 2 -1 1 0 3 -3 1 0 1 -1"/>
<path stroke="blue" d="M669 305l2 -1 1 -1 1 0 2 -2 1 0 2 -2 2 -1 1 0 2 -2 1 0 3 -3 2 0 2 -2 1 0 3 -3 2 0 2 -2 1 0 3 -3 1 0 2 -1 1 -1 1 0 3 -3 1 0 1 -1 2 -1 1 0 2 -2 1 0 3 -3 2 0 2 -2 1 0 3 -3 2 0 2 -2 1 0 2 -2 1 0 1 -1 2 -1 1 -1 1 0 2 -2 1 0"/>
<path stroke="blue" d="M746 257l2 -2 2 0 2 -2 1 0 3 -3 2 0 2 -2 1 0 2 -2 1 0 1 -1 2 -1 1 0 3 -3 1 0 2 -2 2 0 2 -2 1 0 2 -2 1 0 2 -1 1 -1 1 0 3 -3 1 0 1 -1 2 -1 1 0 2 -2 1 0 2 -2 1 0 2 -1 1 -1 1 0 2 -2 1 0 1 -1 2 -1 1 0 2 -2 1 0 3 -3 2 0 2 -2"/>
<path stroke="blue" d="M821 211l1 0 2 -2 1 0 1 -1 2 -1 1 0 2 -2 1 0 2 -2 1 0 2 -1 1 -1 1 0 2 -2 1 0 1 -1 2 -1 1 0 2 -2 1 0 2 -2 1 0 2 -1 1 -1 1 0 2 -2 1 0 2 -2 2 0 1 -1 1 0 2 -2 1 0 1 -1 2 -1 1 0 2 -2 1 0 2 -2 1 0 2 -1 1 -1 1 0 2 -2 1 0 2 -2"/>
<path stroke="blue" d="M887 172l2 0 1 -1 1 0 2 -2 1 0 1 -1 2 -1 1 0 2 -2 1 0 2 -2 1 0 2 -1 1 -1 1 0 1 -1 1 0 2 -2 1 0 2 -1 1 -1 1 0 2 -2 1 0 1 -1 2 0 2 -2 1 0 2 -2 1 0 1 -1 2 -1 1 0 1 -1 1 0 2 -2 1 0 1 -1 2 -1 1 0 1 -1 1 0 2 -2 1 0 1 -1 2 -1"/>
<path stroke="blue" d="M950 137l1 0 1 -1 1 0 2 -2 1 0 2 -1 1 -1 1 0 1 -1 1 0 2 -2"/>
<path stroke="#FFA500" d="M452 39l45 0"/>
<text stroke="none" fill="white" font-size="16" x="507" y="48">
v(in)-v(out3)
</text>
<path stroke="#FFA500" d="M60 720l3 0 1 -1 1 0 2 -2 1 0 2 -2 2 -1 1 0 4 -4 1 0 2 -1 4 -4 1 0 2 -2 2 -1 2 -2 1 0 4 -4 2 -1 1 0 4 -4 1 0 2 -1 4 -4 1 0 2 -2 2 -1 2 -2 1 0 4 -4 2 -1 1 0 5 -5 2 0 4 -4 1 0 2 -2 2 -1 2 -2 1 0 4 -4 2 -1 1 0 4 -4 1 0"/>
<path stroke="#FFA500" d="M156 653l1 -1 2 -1 3 -3 1 0 2 -2 2 -1 2 -2 1 0 4 -4 2 0 5 -5 1 0 1 -1 2 -1 3 -3 1 0 2 -2 2 -1 1 -1 1 0 5 -5 2 0 5 -5 1 0 1 -1 2 -1 2 -2 1 0 3 -3 2 -1 1 -1 1 0 4 -4 1 0 2 -1 4 -4 1 0 2 -2 2 -1 2 -2 1 0 3 -3 2 -1 1 0 5 -5"/>
<path stroke="#FFA500" d="M251 583l1 0 2 -1 3 -3 1 0 3 -3 2 -1 1 -1 1 0 4 -4 1 0 2 -1 4 -4 1 0 1 -1 2 -1 2 -2 1 0 4 -4 2 -1 1 0 4 -4 1 0 1 -1 2 -1 3 -3 1 0 2 -2 2 -1 1 -1 1 0 4 -4 1 0 2 -1 4 -4 1 0 2 -2 2 -1 1 -1 1 0 4 -4 2 -1 1 0 4 -4 1 0 1 -1"/>
<path stroke="#FFA500" d="M339 520l2 -1 2 -2 1 0 4 -4 2 -1 1 0 4 -4 1 0 2 -1 3 -3 1 0 3 -3 2 -1 1 -1 1 0 4 -4 1 0 2 -1 3 -3 1 0 3 -3 2 -1 1 0 5 -5 2 0 4 -4 1 0 2 -2 2 -1 1 -1 1 0 4 -4 1 0 2 -1 3 -3 1 0 2 -2 2 -1 2 -2 1 0 4 -4 2 0 4 -4 1 0 2 -2"/>
<path stroke="#FFA500" d="M435 451l2 -1 1 -1 1 0 4 -4 2 0 4 -4 1 0 2 -2 2 -1 1 -1 1 0 4 -4 1 0 2 -1 3 -3 1 0 2 -2 2 -1 1 -1 1 0 4 -4 1 0 2 -1 3 -3 1 0 3 -3 2 -1 1 0 4 -4 1 0 1 -1 2 -1 2 -2 1 0 3 -3 2 -1 1 0 4 -4 1 0 1 -1 2 -1 2 -2 1 0 4 -4 2 0"/>
<path stroke="#FFA500" d="M524 389l3 -3 1 0 2 -2 2 -1 1 -1 1 0 4 -4 1 0 2 -1 3 -3 1 0 3 -3 2 -1 1 0 3 -3 1 0 1 -1 2 -1 2 -2 1 0 4 -4 2 0 4 -4 1 0 2 -2 2 -1 1 0 4 -4 1 0 2 -1 3 -3 1 0 3 -3 2 0 4 -4 1 0 2 -2 2 -1 1 -1 1 0 3 -3 1 0 1 -1 2 -1 2 -2"/>
<path stroke="#FFA500" d="M613 326l1 0 3 -3 2 0 4 -4 1 0 2 -2 2 -1 1 0 4 -4 1 0 1 -1 2 -1 1 -1 1 0 4 -4 2 0 3 -3 1 0 3 -3 2 -1 1 0 3 -3 1 0 2 -2 2 -1 1 0 4 -4 1 0 2 -1 2 -2 1 0 3 -3 1 0 2 -1 3 -3 1 0 3 -3 2 0 3 -3 1 0 2 -2 2 -1 1 -1 1 0 3 -3"/>
<path stroke="#FFA500" d="M702 265l1 0 1 -1 2 -1 1 -1 1 0 3 -3 1 0 1 -1 2 -1 1 -1 1 0 4 -4 1 0 2 -1 2 -2 1 0 3 -3 2 0 3 -3 1 0 3 -3 2 0 3 -3 1 0 3 -3 2 0 3 -3 1 0 2 -2 2 -1 1 0 4 -4 1 0 1 -1 2 -1 1 -1 1 0 3 -3 1 0 1 -1 2 -1 1 -1 1 0 2 -2 1 0"/>
<path stroke="#FFA500" d="M781 213l1 -1 2 -1 1 -1 1 0 3 -3 1 0 1 -1 2 -1 1 -1 1 0 3 -3 1 0 1 -1 2 -1 1 -1 1 0 3 -3 1 0 2 -1 2 -2 1 0 3 -3 1 0 2 -1 1 -1 1 0 3 -3 1 0 1 -1 2 -1 1 -1 1 0 3 -3 1 0 1 -1 2 -1 1 0 3 -3 1 0 1 -1 2 -1 1 -1 1 0 3 -3 1 0"/>
<path stroke="#FFA500" d="M851 167l1 -1 2 -1 1 0 3 -3 1 0 2 -2 2 -1 1 0 2 -2 1 0 2 -2 2 -1 1 0 3 -3 1 0 2 -2 2 0 3 -3 1 0 2 -2 1 0 2 -1 2 -2 1 0 2 -2 1 0 2 -1 2 -2 1 0 2 -2 1 0 1 -1 2 -1 1 -1 1 0 2 -2 1 0 2 -2 2 -1 1 0 2 -2 1 0 2 -2 2 -1 1 0"/>
<path stroke="#FFA500" d="M924 121l2 -2 1 0 3 -3 2 0 2 -2 1 0 2 -2 1 0 1 -1 2 -1 1 -1 1 0 2 -2 1 0 2 -2 2 0 3 -3 1 0 2 -2 2 0 2 -2 1 0 2 -2 1 0"/>
<path stroke="green" d="M60 39l45 0"/>
<text stroke="none" fill="white" font-size="16" x="115" y="48">
v(in)-v(out4)
</text>
<path stroke="green" d="M60 720l1 0 2 -1 1 0 4 -4 1 0 1 -1 2 -1 3 -3 1 0 2 -2 2 -1 2 -2 1 0 4 -4 2 -1 1 0 5 -5 1 0 2 -1 4 -4 1 0 1 -1 2 -1 3 -3 1 0 3 -3 2 -1 1 -1 1 0 5 -5 2 0 5 -5 1 0 2 -1 4 -4 1 0 2 -2 2 -1 2 -2 1 0 4 -4 2 -1 1 0 5 -5 1 0 2 -1"/>
<path stroke="green" d="M159 649l4 -4 1 0 1 -1 2 -1 3 -3 1 0 3 -3 2 -1 1 0 5 -5 1 0 2 -1 4 -4 1 0 1 -1 2 -1 3 -3 1 0 3 -3 2 -1 1 -1 1 0 5 -5 2 0 5 -5 1 0 2 -1 4 -4 1 0 2 -2 2 -1 2 -2 1 0 4 -4 2 -1 1 0 5 -5 2 0 4 -4 1 0 2 -2 2 -1 2 -2 1 0 4 -4"/>
<path stroke="green" d="M261 573l2 -1 1 0 5 -5 1 0 2 -1 4 -4 1 0 1 -1 2 -1 3 -3 1 0 3 -3 2 -1 1 0 5 -5 1 0 2 -1 4 -4 1 0 1 -1 2 -1 3 -3 1 0 3 -3 2 -1 1 -1 1 0 4 -4 1 0 2 -1 4 -4 1 0 1 -1 2 -1 3 -3 1 0 3 -3 2 -1 1 -1 1 0 4 -4 1 0 2 -1 4 -4 1 0"/>
<path stroke="green" d="M355 505l1 -1 2 -1 3 -3 1 0 3 -3 2 -1 1 -1 1 0 4 -4 1 0 2 -1 4 -4 1 0 2 -2 2 -1 2 -2 1 0 3 -3 2 -1 1 0 5 -5 1 0 2 -1 4 -4 1 0 2 -2 2 -1 1 -1 1 0 4 -4 2 -1 1 0 5 -5 1 0 2 -1 3 -3 1 0 3 -3 2 -1 1 -1 1 0 4 -4 2 0 5 -5 1 0"/>
<path stroke="green" d="M451 435l1 -1 2 -1 2 -2 1 0 4 -4 2 -1 1 0 5 -5 2 0 4 -4 1 0 2 -2 2 -1 2 -2 1 0 4 -4 2 0 5 -5 1 0 1 -1 2 -1 2 -2 1 0 3 -3 2 -1 1 -1 1 0 4 -4 1 0 2 -1 3 -3 1 0 3 -3 2 -1 1 -1 1 0 4 -4 2 0 5 -5 1 0 1 -1 2 -1 2 -2 1 0 4 -4"/>
<path stroke="green" d="M548 364l2 0 5 -5 1 0 2 -1 3 -3 1 0 3 -3 2 -1 1 0 5 -5 1 0 2 -1 3 -3 1 0 2 -2 2 -1 1 -1 1 0 5 -5 2 0 4 -4 1 0 2 -2 2 -1 1 -1 1 0 4 -4 1 0 2 -1 4 -4 1 0 1 -1 2 -1 2 -2 1 0 4 -4 2 0 4 -4 1 0 2 -2 2 -1 1 -1 1 0 4 -4 2 0 4 -4"/>
<path stroke="green" d="M649 292l1 0 2 -2 2 -1 2 -2 1 0 4 -4 2 0 4 -4 1 0 1 -1 2 -1 2 -2 1 0 4 -4 2 0 4 -4 1 0 2 -2 2 -1 1 -1 1 0 4 -4 2 0 4 -4 1 0 2 -2 2 -1 1 -1 1 0 4 -4 1 0 2 -1 3 -3 1 0 3 -3 2 0 4 -4 1 0 1 -1 2 -1 2 -2 1 0 4 -4 2 0 4 -4 1 0"/>
<path stroke="green" d="M746 224l2 -2 2 -1 1 -1 1 0 4 -4 2 0 3 -3 1 0 3 -3 2 -1 1 0 4 -4 1 0 1 -1 2 -1 2 -2 1 0 3 -3 2 0 4 -4 1 0 2 -2 2 -1 1 -1 1 0 3 -3 1 0 1 -1 2 -1 2 -2 1 0 3 -3 2 -1 1 0 3 -3 1 0 2 -2 2 -1 1 -1 1 0 3 -3 1 0 1 -1 2 -1 2 -2"/>
<path stroke="green" d="M830 165l1 0 3 -3 1 0 2 -1 3 -3 1 0 2 -2 2 -1 1 0 4 -4 1 0 1 -1 2 -1 1 -1 1 0 4 -4 1 0 2 -1 2 -2 1 0 3 -3 2 -1 1 0 3 -3 1 0 2 -2 2 -1 1 0 4 -4 1 0 1 -1 2 -1 1 -1 1 0 4 -4 2 0 3 -3 1 0 3 -3 2 0 3 -3 1 0 3 -3 2 -1 1 0 3 -3"/>
<path stroke="green" d="M919 104l1 0 1 -1 2 -1 1 -1 1 0 3 -3 1 0 1 -1 2 -1 1 -1 1 0 4 -4 1 0 2 -1 2 -2 1 0 3 -3 1 0 2 -1 2 -2 1 0 3 -3 2 0 3 -3 1 0 2 -2"/>
<path stroke="#FFC0C5" d="M452 55l45 0"/>
<text stroke="none" fill="white" font-size="16" x="507" y="64">
v(in)-v(out5)
</text>
<path stroke="#FFC0C5" d="M60 720l1 0 2 -1 3 -3 1 0 3 -3 2 -1 2 -2 1 0 3 -3 2 -1 1 -1 1 0 5 -5 2 0 5 -5 1 0 1 -1 2 -1 3 -3 1 0 2 -2 2 -1 2 -2 1 0 4 -4 2 -1 1 0 5 -5 1 0 2 -1 5 -5 1 0 2 -1 4 -4 1 0 2 -2 2 -1 2 -2 1 0 4 -4 2 -1 1 0 5 -5 1 0 2 -1"/>
<path stroke="#FFC0C5" d="M159 648l4 -4 1 0 1 -1 2 -1 3 -3 1 0 3 -3 2 -1 1 -1 1 0 5 -5 2 0 5 -5 1 0 2 -1 4 -4 1 0 2 -2 2 -1 3 -3 1 0 3 -3 2 -1 1 -1 1 0 4 -4 2 -1 1 0 5 -5 1 0 2 -1 4 -4 1 0 2 -2 2 -1 2 -2 1 0 3 -3 2 -1 1 -1 1 0 5 -5 2 0 5 -5 1 0"/>
<path stroke="#FFC0C5" d="M260 573l1 -1 2 -1 3 -3 1 0 3 -3 2 -1 1 -1 1 0 4 -4 2 -1 1 0 5 -5 1 0 2 -1 4 -4 1 0 2 -2 2 -1 2 -2 1 0 3 -3 2 -1 1 -1 1 0 5 -5 2 0 5 -5 1 0 1 -1 2 -1 3 -3 1 0 2 -2 2 -1 2 -2 1 0 4 -4 2 -1 1 0 5 -5 1 0 2 -1 4 -4 1 0 1 -1"/>
<path stroke="#FFC0C5" d="M356 502l2 -1 3 -3 1 0 3 -3 2 -1 1 -1 1 0 5 -5 2 0 5 -5 1 0 1 -1 2 -1 3 -3 1 0 2 -2 2 -1 2 -2 1 0 4 -4 2 -1 1 0 5 -5 1 0 2 -1 4 -4 1 0 1 -1 2 -1 3 -3 1 0 3 -3 2 -1 1 0 5 -5 1 0 2 -1 4 -4 1 0 1 -1 2 -1 3 -3 1 0 3 -3 2 -1"/>
<path stroke="#FFC0C5" d="M454 430l1 -1 1 0 5 -5 2 0 5 -5 1 0 2 -1 4 -4 1 0 2 -2 2 -1 1 -1 1 0 5 -5 2 0 5 -5 1 0 1 -1 2 -1 3 -3 1 0 2 -2 2 -1 2 -2 1 0 4 -4 2 -1 1 0 4 -4 1 0 1 -1 2 -1 3 -3 1 0 2 -2 2 -1 2 -2 1 0 4 -4 2 -1 1 0 4 -4 1 0 1 -1 2 -1"/>
<path stroke="#FFC0C5" d="M550 360l3 -3 1 0 2 -2 2 -1 2 -2 1 0 4 -4 2 -1 1 0 4 -4 1 0 1 -1 2 -1 3 -3 1 0 2 -2 2 -1 2 -2 1 0 4 -4 2 -1 1 0 4 -4 1 0 1 -1 2 -1 3 -3 1 0 3 -3 2 -1 1 -1 1 0 4 -4 2 0 5 -5 1 0 1 -1 2 -1 3 -3 1 0 3 -3 2 -1 1 0 5 -5 2 0"/>
<path stroke="#FFC0C5" d="M645 291l4 -4 1 0 2 -2 2 -1 2 -2 1 0 4 -4 2 -1 1 0 4 -4 1 0 2 -1 4 -4 1 0 2 -2 2 -1 1 -1 1 0 5 -5 2 0 4 -4 1 0 1 -1 2 -1 3 -3 1 0 3 -3 2 -1 1 0 5 -5 1 0 2 -1 3 -3 1 0 3 -3 2 -1 1 -1 1 0 4 -4 2 0 5 -5 1 0 1 -1 2 -1 2 -2"/>
<path stroke="#FFC0C5" d="M743 219l1 0 4 -4 2 0 5 -5 1 0 2 -1 3 -3 1 0 3 -3 2 -1 1 0 5 -5 1 0 2 -1 3 -3 1 0 2 -2 2 -1 1 -1 1 0 5 -5 2 0 4 -4 1 0 2 -2 2 -1 1 -1 1 0 4 -4 2 -1 1 0 4 -4 1 0 1 -1 2 -1 2 -2 1 0 4 -4 2 0 4 -4 1 0 2 -2 2 -1 2 -2 1 0"/>
<path stroke="#FFC0C5" d="M840 150l3 -3 2 -1 1 0 4 -4 1 0 1 -1 2 -1 2 -2 1 0 4 -4 2 0 4 -4 1 0 1 -1 2 -1 2 -2 1 0 4 -4 2 -1 1 0 4 -4 1 0 1 -1 2 -1 2 -2 1 0 3 -3 2 -1 1 0 4 -4 1 0 1 -1 2 -1 2 -2 1 0 4 -4 2 0 4 -4 1 0 1 -1 2 -1 2 -2 1 0 3 -3 1 0"/>
<path stroke="#FFC0C5" d="M930 86l2 -1 3 -3 1 0 3 -3 2 -1 1 0 4 -4 1 0 1 -1 2 -1 2 -2 1 0 3 -3 2 -1 1 0 4 -4 1 0"/>
<path stroke="#A52A2A" d="M60 55l45 0"/>
<text stroke="none" fill="white" font-size="16" x="115" y="64">
v(in)
</text>
<path stroke="#A52A2A" d="M60 720l1 -1 2 -1 2 -2 1 0 4 -4 2 -1 1 0 5 -5 2 -1 1 0 5 -5 1 0 2 -1 4 -4 1 0 2 -2 2 -1 2 -2 1 0 3 -3 2 -1 2 -2 1 0 4 -4 2 -1 1 0 5 -5 1 0 2 -1 4 -4 1 0 1 -1 2 -1 4 -4 1 0 2 -2 2 -1 2 -2 1 0 4 -4 2 -1 1 0 5 -5 1 0 2 -1"/>
<path stroke="#A52A2A" d="M159 647l5 -5 1 0 2 -1 4 -4 1 0 2 -2 2 -1 2 -2 1 0 4 -4 2 -1 1 0 5 -5 2 -1 1 0 5 -5 1 0 2 -1 4 -4 1 0 2 -2 2 -1 2 -2 1 0 3 -3 2 -1 2 -2 1 0 4 -4 2 -1 1 0 5 -5 1 0 2 -1 4 -4 1 0 1 -1 2 -1 4 -4 1 0 2 -2 2 -1 2 -2 1 0 4 -4"/>
<path stroke="#A52A2A" d="M261 570l2 -1 1 0 5 -5 1 0 2 -1 5 -5 1 0 2 -1 4 -4 1 0 2 -2 2 -1 2 -2 1 0 4 -4 2 -1 1 0 5 -5 2 -1 1 0 5 -5 1 0 2 -1 4 -4 1 0 2 -2 2 -1 2 -2 1 0 3 -3 2 -1 2 -2 1 0 4 -4 2 -1 1 0 5 -5 1 0 2 -1 4 -4 1 0 1 -1 2 -1 4 -4 1 0"/>
<path stroke="#A52A2A" d="M363 495l2 -2 2 -1 2 -2 1 0 4 -4 2 -1 1 0 5 -5 1 0 2 -1 5 -5 1 0 2 -1 4 -4 1 0 2 -2 2 -1 2 -2 1 0 4 -4 2 -1 1 0 5 -5 2 -1 1 0 5 -5 1 0 2 -1 4 -4 1 0 2 -2 2 -1 2 -2 1 0 3 -3 2 -1 2 -2 1 0 4 -4 2 -1 1 0 5 -5 1 0 2 -1 4 -4"/>
<path stroke="#A52A2A" d="M467 417l1 0 1 -1 2 -1 4 -4 1 0 2 -2 2 -1 2 -2 1 0 4 -4 2 -1 1 0 5 -5 1 0 2 -1 5 -5 1 0 2 -1 4 -4 1 0 2 -2 2 -1 2 -2 1 0 4 -4 2 -1 1 0 5 -5 2 -1 1 0 5 -5 1 0 2 -1 4 -4 1 0 2 -2 2 -1 2 -2 1 0 3 -3 2 -1 2 -2 1 0 4 -4 2 -1"/>
<path stroke="#A52A2A" d="M567 343l1 0 5 -5 1 0 2 -1 4 -4 1 0 1 -1 2 -1 4 -4 1 0 2 -2 2 -1 2 -2 1 0 4 -4 2 -1 1 0 5 -5 1 0 2 -1 5 -5 1 0 2 -1 4 -4 1 0 2 -2 2 -1 2 -2 1 0 4 -4 2 -1 1 0 5 -5 2 -1 1 0 5 -5 1 0 2 -1 4 -4 1 0 2 -2 2 -1 2 -2 1 0 3 -3"/>
<path stroke="#A52A2A" d="M669 267l2 -1 2 -2 1 0 4 -4 2 -1 1 0 5 -5 1 0 2 -1 4 -4 1 0 1 -1 2 -1 4 -4 1 0 2 -2 2 -1 2 -2 1 0 4 -4 2 -1 1 0 5 -5 1 0 2 -1 5 -5 1 0 2 -1 4 -4 1 0 2 -2 2 -1 2 -2 1 0 4 -4 2 -1 1 0 5 -5 2 -1 1 0 5 -5 1 0 2 -1 4 -4 1 0"/>
<path stroke="#A52A2A" d="M772 191l2 -2 2 -1 2 -2 1 0 3 -3 2 -1 2 -2 1 0 4 -4 2 -1 1 0 5 -5 1 0 2 -1 4 -4 1 0 1 -1 2 -1 4 -4 1 0 2 -2 2 -1 2 -2 1 0 4 -4 2 -1 1 0 5 -5 1 0 2 -1 5 -5 1 0 2 -1 4 -4 1 0 2 -2 2 -1 2 -2 1 0 4 -4 2 -1 1 0 5 -5 2 -1"/>
<path stroke="#A52A2A" d="M871 117l1 0 5 -5 1 0 2 -1 4 -4 1 0 2 -2 2 -1 2 -2 1 0 3 -3 2 -1 2 -2 1 0 4 -4 2 -1 1 0 5 -5 1 0 2 -1 4 -4 1 0 1 -1 2 -1 4 -4 1 0 2 -2 2 -1 2 -2 1 0 4 -4 2 -1 1 0 5 -5 1 0 2 -1 5 -5 1 0 2 -1 4 -4 1 0 1 -1"/>
</svg>
